<svg width="373" height="169" viewBox="0 0 373 169" fill="none" xmlns="http://www.w3.org/2000/svg">
<path d="M0 25C0 11.1929 11.1929 0 25 0H348C361.807 0 373 11.1929 373 25V169H0V25Z" fill="url(#paint0_linear_4004_52150)"/>
<path d="M0 25C0 11.1929 11.1929 0 25 0H348C361.807 0 373 11.1929 373 25V169H0V25Z" fill="url(#paint1_linear_4004_52150)"/>
<path d="M164.47 8.17V52.81C116.41 84.3 73.92 123.65 38.88 169H0V25C0 11.19 11.19 0 25 0H163.64C164.18 2.64 164.47 5.37 164.47 8.17Z" fill="#52B6F3" fill-opacity="0.2"/>
<path d="M164.47 103.01V159.81C164.47 162.97 164.11 166.05 163.41 169H92.3599C114.04 144.61 138.21 122.47 164.47 103.01Z" fill="#52B6F3" fill-opacity="0.2"/>
<path d="M269.72 0C247.62 8.05 226.22 17.58 205.65 28.47V8.17C205.65 5.37 205.94 2.64 206.48 0H269.72Z" fill="#52B6F3" fill-opacity="0.2"/>
<path d="M373 25V169H210.54C209.89 166.14 209.55 163.17 209.55 160.12V75.98H209.58C258.62 46.98 313.37 26.61 371.69 17C372.54 19.51 373 22.2 373 25Z" fill="#52B6F3" fill-opacity="0.2"/>
<g filter="url(#filter0_b_4004_52150)">
<circle cx="187" cy="84" r="58" fill="white" fill-opacity="0.3"/>
<circle cx="187" cy="84" r="57.5" stroke="white"/>
</g>
<path d="M187 87.5385L203.231 103.769C203.699 104.237 204.272 104.487 204.952 104.519C205.631 104.551 206.237 104.301 206.769 103.769C207.301 103.237 207.567 102.647 207.567 102C207.567 101.353 207.301 100.763 206.769 100.231L190.539 84L206.769 67.7692C207.237 67.3013 207.487 66.7276 207.519 66.0481C207.551 65.3686 207.301 64.7628 206.769 64.2308C206.237 63.6987 205.647 63.4326 205 63.4326C204.353 63.4326 203.763 63.6987 203.231 64.2308L187 80.4615L170.769 64.2308C170.301 63.7628 169.728 63.5128 169.048 63.4808C168.369 63.4487 167.763 63.6987 167.231 64.2308C166.699 64.7628 166.433 65.3526 166.433 66C166.433 66.6474 166.699 67.2372 167.231 67.7692L183.462 84L167.231 100.231C166.763 100.699 166.513 101.272 166.481 101.952C166.449 102.631 166.699 103.237 167.231 103.769C167.763 104.301 168.353 104.567 169 104.567C169.647 104.567 170.237 104.301 170.769 103.769L187 87.5385ZM187.017 129C180.794 129 174.944 127.819 169.465 125.458C163.987 123.096 159.222 119.891 155.17 115.842C151.118 111.794 147.91 107.033 145.546 101.56C143.182 96.0872 142 90.2394 142 84.0168C142 77.794 143.181 71.9436 145.542 66.4655C147.904 60.9874 151.109 56.2222 155.158 52.1699C159.206 48.1176 163.967 44.9096 169.44 42.5458C174.913 40.1819 180.761 39 186.983 39C193.206 39 199.056 40.1808 204.535 42.5424C210.013 44.904 214.778 48.1091 218.83 52.1576C222.882 56.2061 226.09 60.9668 228.454 66.4398C230.818 71.9128 232 77.7606 232 83.9832C232 90.206 230.819 96.0564 228.458 101.535C226.096 107.013 222.891 111.778 218.842 115.83C214.794 119.882 210.033 123.09 204.56 125.454C199.087 127.818 193.239 129 187.017 129ZM187 124C198.167 124 207.625 120.125 215.375 112.375C223.125 104.625 227 95.1667 227 84C227 72.8333 223.125 63.375 215.375 55.625C207.625 47.875 198.167 44 187 44C175.833 44 166.375 47.875 158.625 55.625C150.875 63.375 147 72.8333 147 84C147 95.1667 150.875 104.625 158.625 112.375C166.375 120.125 175.833 124 187 124Z" fill="white"/>
<defs>
<filter id="filter0_b_4004_52150" x="123" y="20" width="128" height="128" filterUnits="userSpaceOnUse" color-interpolation-filters="sRGB">
<feFlood flood-opacity="0" result="BackgroundImageFix"/>
<feGaussianBlur in="BackgroundImageFix" stdDeviation="3"/>
<feComposite in2="SourceAlpha" operator="in" result="effect1_backgroundBlur_4004_52150"/>
<feBlend mode="normal" in="SourceGraphic" in2="effect1_backgroundBlur_4004_52150" result="shape"/>
</filter>
<linearGradient id="paint0_linear_4004_52150" x1="33.6736" y1="-14.8004" x2="102.864" y2="185.381" gradientUnits="userSpaceOnUse">
<stop stop-color="#52B6F3"/>
<stop offset="1" stop-color="#2C37C7"/>
</linearGradient>
<linearGradient id="paint1_linear_4004_52150" x1="33.6736" y1="-14.8004" x2="102.864" y2="185.381" gradientUnits="userSpaceOnUse">
<stop stop-color="#52B6F3"/>
<stop offset="1" stop-color="#2C37C7"/>
</linearGradient>
</defs>
</svg>
