<svg width="373" height="169" viewBox="0 0 373 169" fill="none" xmlns="http://www.w3.org/2000/svg">
<path d="M0 25C0 11.1929 11.1929 0 25 0H348C361.807 0 373 11.1929 373 25V169H0V25Z" fill="url(#paint0_linear_4004_52149)"/>
<path d="M0 25C0 11.1929 11.1929 0 25 0H348C361.807 0 373 11.1929 373 25V169H0V25Z" fill="url(#paint1_linear_4004_52149)"/>
<path d="M164.47 8.17V52.81C116.41 84.3 73.92 123.65 38.88 169H0V25C0 11.19 11.19 0 25 0H163.64C164.18 2.64 164.47 5.37 164.47 8.17Z" fill="#52B6F3" fill-opacity="0.2"/>
<path d="M164.47 103.01V159.81C164.47 162.97 164.11 166.05 163.41 169H92.3599C114.04 144.61 138.21 122.47 164.47 103.01Z" fill="#52B6F3" fill-opacity="0.2"/>
<path d="M269.72 0C247.62 8.05 226.22 17.58 205.65 28.47V8.17C205.65 5.37 205.94 2.64 206.48 0H269.72Z" fill="#52B6F3" fill-opacity="0.2"/>
<path d="M373 25V169H210.54C209.89 166.14 209.55 163.17 209.55 160.12V75.98H209.58C258.62 46.98 313.37 26.61 371.69 17C372.54 19.51 373 22.2 373 25Z" fill="#52B6F3" fill-opacity="0.2"/>
<g filter="url(#filter0_b_4004_52149)">
<circle cx="187" cy="84" r="58" fill="white" fill-opacity="0.3"/>
<circle cx="187" cy="84" r="57.5" stroke="white"/>
</g>
<path d="M179.808 96.4615L167.327 83.9807C166.859 83.5128 166.285 83.2628 165.606 83.2307C164.926 83.1987 164.32 83.4487 163.788 83.9807C163.256 84.5128 162.99 85.1026 162.99 85.75C162.99 86.3974 163.256 86.9872 163.788 87.5192L176.981 100.711C177.788 101.519 178.731 101.923 179.808 101.923C180.885 101.923 181.827 101.519 182.635 100.711L210.019 73.3269C210.487 72.859 210.737 72.2852 210.769 71.6057C210.801 70.9262 210.551 70.3205 210.019 69.7885C209.487 69.2564 208.897 68.9904 208.25 68.9904C207.603 68.9904 207.013 69.2564 206.481 69.7885L179.808 96.4615ZM187.017 129C180.794 129 174.944 127.819 169.465 125.458C163.987 123.096 159.222 119.891 155.17 115.842C151.118 111.794 147.91 107.033 145.546 101.56C143.182 96.0872 142 90.2394 142 84.0167C142 77.794 143.181 71.9436 145.542 66.4655C147.904 60.9874 151.109 56.2222 155.158 52.1699C159.206 48.1176 163.967 44.9096 169.44 42.5458C174.913 40.1819 180.761 39 186.983 39C193.206 39 199.056 40.1808 204.534 42.5424C210.013 44.904 214.778 48.1091 218.83 52.1576C222.882 56.2061 226.09 60.9668 228.454 66.4397C230.818 71.9127 232 77.7606 232 83.9832C232 90.206 230.819 96.0564 228.458 101.534C226.096 107.013 222.891 111.778 218.842 115.83C214.794 119.882 210.033 123.09 204.56 125.454C199.087 127.818 193.239 129 187.017 129ZM187 124C198.167 124 207.625 120.125 215.375 112.375C223.125 104.625 227 95.1667 227 84C227 72.8333 223.125 63.375 215.375 55.625C207.625 47.875 198.167 44 187 44C175.833 44 166.375 47.875 158.625 55.625C150.875 63.375 147 72.8333 147 84C147 95.1667 150.875 104.625 158.625 112.375C166.375 120.125 175.833 124 187 124Z" fill="white"/>
<defs>
<filter id="filter0_b_4004_52149" x="123" y="20" width="128" height="128" filterUnits="userSpaceOnUse" color-interpolation-filters="sRGB">
<feFlood flood-opacity="0" result="BackgroundImageFix"/>
<feGaussianBlur in="BackgroundImageFix" stdDeviation="3"/>
<feComposite in2="SourceAlpha" operator="in" result="effect1_backgroundBlur_4004_52149"/>
<feBlend mode="normal" in="SourceGraphic" in2="effect1_backgroundBlur_4004_52149" result="shape"/>
</filter>
<linearGradient id="paint0_linear_4004_52149" x1="33.6736" y1="-14.8004" x2="102.864" y2="185.381" gradientUnits="userSpaceOnUse">
<stop stop-color="#52B6F3"/>
<stop offset="1" stop-color="#2C37C7"/>
</linearGradient>
<linearGradient id="paint1_linear_4004_52149" x1="33.6736" y1="-14.8004" x2="102.864" y2="185.381" gradientUnits="userSpaceOnUse">
<stop stop-color="#52B6F3"/>
<stop offset="1" stop-color="#2C37C7"/>
</linearGradient>
</defs>
</svg>
