<svg width="401" height="197" viewBox="0 0 401 197" fill="none" xmlns="http://www.w3.org/2000/svg">
<path d="M14 39C14 25.1929 25.1929 14 39 14H362C375.807 14 387 25.1929 387 39V183H14V39Z" fill="url(#paint0_linear_7967_29)"/>
<g filter="url(#filter0_f_7967_29)">
<path d="M178.47 22.17V66.81C130.41 98.3 87.92 137.65 52.88 183H14V39C14 25.19 25.19 14 39 14H177.64C178.18 16.64 178.47 19.37 178.47 22.17Z" fill="#52B6F3" fill-opacity="0.2"/>
<path d="M178.469 117.01V173.81C178.469 176.97 178.109 180.05 177.409 183H106.359C128.039 158.61 152.209 136.47 178.469 117.01Z" fill="#52B6F3" fill-opacity="0.2"/>
<path d="M283.72 14C261.62 22.05 240.22 31.58 219.65 42.47V22.17C219.65 19.37 219.94 16.64 220.48 14H283.72Z" fill="#52B6F3" fill-opacity="0.2"/>
<path d="M387 39V183H224.54C223.89 180.14 223.55 177.17 223.55 174.12V89.98H223.58C272.62 60.98 327.37 40.61 385.69 31C386.54 33.51 387 36.2 387 39Z" fill="#52B6F3" fill-opacity="0.2"/>
</g>
<circle cx="200" cy="98" r="57" fill="white" fill-opacity="0.15"/>
<circle cx="200" cy="98" r="56.5" stroke="white" stroke-opacity="0.5"/>
<mask id="mask0_7967_29" style="mask-type:alpha" maskUnits="userSpaceOnUse" x="139" y="37" width="122" height="122">
<rect x="139" y="37" width="122" height="122" fill="white"/>
</mask>
<g mask="url(#mask0_7967_29)">
<path d="M200 120.68C200.886 120.68 201.629 120.38 202.229 119.78C202.828 119.181 203.128 118.438 203.128 117.551C203.128 116.665 202.828 115.922 202.229 115.322C201.629 114.723 200.886 114.423 200 114.423C199.114 114.423 198.371 114.723 197.771 115.322C197.172 115.922 196.872 116.665 196.872 117.551C196.872 118.438 197.172 119.181 197.771 119.78C198.371 120.38 199.114 120.68 200 120.68ZM200.003 103.865C200.725 103.865 201.328 103.622 201.813 103.135C202.299 102.648 202.542 102.044 202.542 101.324V75.9071C202.542 75.1869 202.298 74.5833 201.81 74.0961C201.322 73.609 200.718 73.3654 199.997 73.3654C199.275 73.3654 198.672 73.609 198.187 74.0961C197.701 74.5833 197.458 75.1869 197.458 75.9071V101.324C197.458 102.044 197.702 102.648 198.19 103.135C198.678 103.622 199.282 103.865 200.003 103.865ZM200.017 143.75C193.691 143.75 187.743 142.55 182.173 140.149C176.604 137.748 171.759 134.489 167.639 130.373C163.52 126.257 160.258 121.417 157.855 115.853C155.452 110.289 154.25 104.343 154.25 98.017C154.25 91.6906 155.45 85.7426 157.851 80.1733C160.252 74.6039 163.511 69.7592 167.627 65.6394C171.743 61.5196 176.583 58.2581 182.147 55.8548C187.711 53.4516 193.657 52.25 199.983 52.25C206.309 52.25 212.257 53.4505 217.827 55.8514C223.396 58.2524 228.241 61.5109 232.361 65.6269C236.48 69.7429 239.742 74.5829 242.145 80.1471C244.548 85.7113 245.75 91.6566 245.75 97.983C245.75 104.309 244.55 110.257 242.149 115.827C239.748 121.396 236.489 126.241 232.373 130.361C228.257 134.48 223.417 137.742 217.853 140.145C212.289 142.548 206.343 143.75 200.017 143.75ZM200 138.667C211.353 138.667 220.969 134.727 228.848 126.848C236.727 118.969 240.667 109.353 240.667 98C240.667 86.6472 236.727 77.0313 228.848 69.1521C220.969 61.2729 211.353 57.3333 200 57.3333C188.647 57.3333 179.031 61.2729 171.152 69.1521C163.273 77.0313 159.333 86.6472 159.333 98C159.333 109.353 163.273 118.969 171.152 126.848C179.031 134.727 188.647 138.667 200 138.667Z" fill="white"/>
</g>
<defs>
<filter id="filter0_f_7967_29" x="0" y="0" width="401" height="197" filterUnits="userSpaceOnUse" color-interpolation-filters="sRGB">
<feFlood flood-opacity="0" result="BackgroundImageFix"/>
<feBlend mode="normal" in="SourceGraphic" in2="BackgroundImageFix" result="shape"/>
<feGaussianBlur stdDeviation="7" result="effect1_foregroundBlur_7967_29"/>
</filter>
<linearGradient id="paint0_linear_7967_29" x1="47.6736" y1="-0.800408" x2="116.864" y2="199.381" gradientUnits="userSpaceOnUse">
<stop stop-color="#52B6F3"/>
<stop offset="1" stop-color="#2C37C7"/>
</linearGradient>
</defs>
</svg>
