<svg width="7" height="10" viewBox="0 0 7 10" fill="none" xmlns="http://www.w3.org/2000/svg">
<path d="M6.92654 5.00252C6.92654 5.13326 6.90034 5.25843 6.84794 5.37804C6.79554 5.49766 6.71253 5.60649 6.59891 5.70453L1.93654 9.72765C1.72216 9.91264 1.453 10.0051 1.12905 10.0051C0.805103 10.0051 0.53594 9.91264 0.321564 9.72765C0.107188 9.54267 9.60075e-09 9.31041 1.34638e-08 9.03088C1.73269e-08 8.75135 0.107188 8.51909 0.321564 8.3341L4.18252 5.00252L0.321564 1.67094C0.107188 1.48596 1.20942e-07 1.2537 1.24805e-07 0.974169C1.28668e-07 0.694636 0.107188 0.462379 0.321564 0.277395C0.535941 0.0924121 0.805103 -8.00334e-05 1.12905 -8.00301e-05C1.453 -8.00268e-05 1.72216 0.0924122 1.93654 0.277395L6.59891 4.30052C6.71253 4.39855 6.79554 4.50739 6.84794 4.62701C6.90034 4.74662 6.92654 4.87179 6.92654 5.00252Z" fill="#303030"/>
</svg>
