<svg width="40" height="40" viewBox="0 0 40 40" fill="none" xmlns="http://www.w3.org/2000/svg">
<circle cx="20.0001" cy="20" r="20" transform="rotate(180 20.0001 20)" fill="url(#paint0_linear_2513_13486)"/>
<path d="M26.4908 9.52327L15.8947 19.9358L12.3997 16.5034L23.002 6.09689C23.9653 5.14479 25.5275 5.14479 26.4908 6.09689C27.4541 7.04294 27.4541 8.57723 26.4908 9.52327Z" fill="#2A71F3"/>
<path d="M26.4907 33.7745C26.0091 34.2476 25.3792 34.4901 24.7432 34.4901C24.1072 34.4901 23.4835 34.2476 23.0019 33.7745L10.6521 21.6518C9.68887 20.7058 9.68887 19.1654 10.6521 18.2194L12.3996 16.5032L15.8946 19.9356L20.2479 24.2171L26.4907 30.3482C27.454 31.2942 27.454 32.8285 26.4907 33.7745Z" fill="url(#paint1_linear_2513_13486)"/>
<defs>
<linearGradient id="paint0_linear_2513_13486" x1="32.3446" y1="3.69038" x2="9.60321" y2="27.3415" gradientUnits="userSpaceOnUse">
<stop stop-color="#2A71F3" stop-opacity="0.13"/>
<stop offset="1" stop-color="white" stop-opacity="0"/>
</linearGradient>
<linearGradient id="paint1_linear_2513_13486" x1="16.8209" y1="27.7101" x2="20.2589" y2="24.2156" gradientUnits="userSpaceOnUse">
<stop stop-color="#2A71F3"/>
<stop offset="0.11" stop-color="#2A71F3" stop-opacity="0.92"/>
<stop offset="0.39" stop-color="#2A71F3" stop-opacity="0.74"/>
<stop offset="0.64" stop-color="#2A71F3" stop-opacity="0.61"/>
<stop offset="0.85" stop-color="#2A71F3" stop-opacity="0.53"/>
<stop offset="1" stop-color="#2A71F3" stop-opacity="0.5"/>
</linearGradient>
</defs>
</svg>
