<svg width="8" height="11" viewBox="0 0 8 11" fill="none" xmlns="http://www.w3.org/2000/svg">
<path d="M0.731447 5.25651C0.731447 5.12578 0.757648 5.00061 0.810049 4.881C0.862451 4.76137 0.94546 4.65254 1.05908 4.5545L5.72145 0.531381C5.93583 0.346398 6.20499 0.253906 6.52894 0.253906C6.85289 0.253906 7.12205 0.346398 7.33643 0.531381C7.5508 0.716365 7.65799 0.948622 7.65799 1.22816C7.65799 1.50769 7.5508 1.73995 7.33643 1.92493L3.47547 5.25651L7.33642 8.58809C7.5508 8.77307 7.65799 9.00533 7.65799 9.28486C7.65799 9.5644 7.5508 9.79665 7.33642 9.98164C7.12205 10.1666 6.85289 10.2591 6.52894 10.2591C6.20499 10.2591 5.93583 10.1666 5.72145 9.98164L1.05908 5.95852C0.945459 5.86048 0.862451 5.75165 0.810049 5.63202C0.757648 5.51241 0.731447 5.38724 0.731447 5.25651Z" fill="#303030"/>
</svg>
