<svg width="62" height="45" viewBox="0 0 62 45" fill="none" xmlns="http://www.w3.org/2000/svg">
<path d="M0 30C0 13.4315 13.4315 0 30 0H57C59.7614 0 62 2.23858 62 5V15C62 31.5685 48.5685 45 32 45H5C2.23858 45 0 42.7614 0 40V30Z" fill="#2A71F3"/>
<g clip-path="url(#clip0_2109_4274)">
<path d="M32.1488 20.5561C31.4934 21.1961 30.838 21.836 30.1825 22.4813L28.5088 20.847C29.148 20.2123 29.7925 19.5882 30.4317 18.9641C30.54 18.8584 30.6538 18.7526 30.7784 18.6732C31.4771 18.2078 32.425 18.5939 32.5875 19.4031C32.6796 19.8791 32.4792 20.2335 32.1488 20.5561Z" fill="white"/>
<path d="M35.8912 28.056C33.9303 29.9864 31.9641 31.9169 30.0032 33.8473C28.7737 35.0532 27.3274 35.799 25.5995 35.9629C23.9691 36.1216 22.4416 35.7672 21.0874 34.8575C18.9857 33.4401 17.9349 31.4567 17.9999 28.9657C18.0432 27.1357 18.8287 25.5966 20.1449 24.3061C22.1274 22.3704 24.1045 20.4293 26.087 18.4883L27.7553 20.1173C25.7728 22.0636 23.7903 24.0099 21.8024 25.9563C20.7787 26.9559 20.2912 28.1406 20.367 29.5633C20.4916 31.7529 22.4687 33.6411 24.7112 33.6887C26.0924 33.7204 27.2624 33.2656 28.232 32.3083C30.0087 30.5576 31.7907 28.807 33.5728 27.0616C33.7895 26.8501 34.0062 26.6385 34.2174 26.427L35.8857 28.056H35.8912Z" fill="url(#paint0_linear_2109_4274)"/>
<path d="M40.4415 18.8163C38.1069 21.1011 35.7724 23.3806 33.4378 25.6601L31.764 24.0259C34.4615 21.3867 37.1644 18.7528 39.8619 16.1136C39.9324 16.0449 40.0028 15.9761 40.0678 15.9021C40.7665 15.1193 40.9561 14.2043 40.6528 13.2259C40.0299 11.2214 37.484 10.6343 35.9024 12.1205C35.4582 12.533 35.0465 12.972 34.6132 13.3951C32.3274 15.6376 30.0469 17.8748 27.7611 20.1173L26.0928 18.4883C26.5261 18.0599 26.9649 17.6262 27.4036 17.1978C29.5107 15.1299 31.6286 13.0831 33.7086 10.9886C34.7053 9.98374 35.8103 9.21685 37.2565 9H38.6053C39.7049 9.17453 40.6744 9.60823 41.5032 10.3487C43.3665 12.0041 43.6969 14.9606 42.2236 16.9546C41.709 17.6474 41.0536 18.2133 40.4415 18.8163Z" fill="white"/>
<path d="M43.9997 19.3769V19.8529C43.8914 20.1649 43.6856 20.4135 43.4472 20.6515C40.9285 23.1161 38.4097 25.5861 35.891 28.056L34.2227 26.427C36.7631 23.9359 39.3035 21.4501 41.8385 18.9643C41.9143 18.8903 41.9902 18.811 42.0714 18.7422C42.4506 18.446 42.8622 18.3878 43.3118 18.5782C43.6802 18.7316 43.8643 19.0331 43.9997 19.3769Z" fill="white"/>
<path d="M33.4376 25.6601L29.9926 29.0239C28.9742 30.0182 27.788 30.4201 26.3797 30.0235C24.7655 29.5686 23.7309 28.0401 23.9097 26.4164C24.0072 25.5279 24.4351 24.8139 25.0742 24.1951C26.2226 23.0738 27.3655 21.9578 28.5084 20.8472L30.1822 22.4814C29.0392 23.5921 27.8963 24.7081 26.7534 25.8241C26.6613 25.914 26.5692 25.9986 26.4934 26.0938C26.2172 26.4481 26.1738 26.8395 26.3634 27.2362C26.5476 27.6382 26.8888 27.8391 27.3492 27.855C27.7284 27.855 28.0101 27.691 28.2701 27.4372C29.4347 26.3001 30.5992 25.1629 31.7638 24.0258L33.4376 25.6601Z" fill="url(#paint1_linear_2109_4274)"/>
</g>
<defs>
<linearGradient id="paint0_linear_2109_4274" x1="20.0203" y1="34.006" x2="30.7378" y2="23.0243" gradientUnits="userSpaceOnUse">
<stop stop-color="white"/>
<stop offset="1" stop-color="white" stop-opacity="0.5"/>
</linearGradient>
<linearGradient id="paint1_linear_2109_4274" x1="24.9063" y1="29.1772" x2="30.8228" y2="23.1124" gradientUnits="userSpaceOnUse">
<stop stop-color="white"/>
<stop offset="1" stop-color="white" stop-opacity="0.5"/>
</linearGradient>
<clipPath id="clip0_2109_4274">
<rect width="26" height="27" fill="white" transform="translate(18 9)"/>
</clipPath>
</defs>
</svg>
