<svg width="56" height="45" viewBox="0 0 56 45" fill="none" xmlns="http://www.w3.org/2000/svg">
<mask id="mask0_4673_6207" style="mask-type:alpha" maskUnits="userSpaceOnUse" x="0" y="0" width="56" height="45">
<rect width="56" height="45" fill="#D9D9D9"/>
</mask>
<g mask="url(#mask0_4673_6207)">
<g clip-path="url(#clip0_4673_6207)">
<path d="M28.7795 13.5647V15.1334C28.7795 15.2118 28.7361 15.2785 28.665 15.3138C28.3889 15.451 28.1324 15.6314 27.9076 15.8392L26.5859 14.5255C26.8029 14.3177 27.0436 14.1255 27.2961 13.9608C27.6709 13.7138 28.0812 13.5138 28.5151 13.3687C28.6453 13.3255 28.7795 13.4275 28.7795 13.5647Z" fill="white"/>
<path d="M43.9999 18.2118V26.6981C43.9999 28.1216 43.4318 29.4118 42.5205 30.3647L41.258 29.1098C41.8064 28.5294 42.1378 27.753 42.1378 26.8981V18.2118C42.1378 16.9451 41.4001 15.8471 40.3349 15.3138C40.2639 15.2785 40.2205 15.2118 40.2205 15.1334V13.5647C40.2205 13.4275 40.3546 13.3255 40.4848 13.3687C40.9188 13.5138 41.3291 13.7138 41.7038 13.9608C43.0886 14.8745 43.9999 16.4392 43.9999 18.2118Z" fill="white"/>
<path d="M35.431 12.9255V15.149C35.431 15.6588 35.0128 16.0745 34.4999 16.0745C33.987 16.0745 33.5688 15.6588 33.5688 15.149V12.9255C33.5688 12.4157 33.987 12 34.4999 12C34.7563 12 34.9891 12.102 35.1588 12.2706C35.3284 12.4392 35.431 12.6706 35.431 12.9255Z" fill="white"/>
<path d="M31.3321 12.9255V15.149C31.3321 15.6588 30.9179 16.0745 30.401 16.0745C29.8842 16.0745 29.47 15.6588 29.47 15.149V12.9255C29.47 12.4157 29.8882 12 30.401 12C30.6575 12 30.8942 12.102 31.0599 12.2706C31.2295 12.4392 31.3321 12.6706 31.3321 12.9255Z" fill="white"/>
<path d="M39.5301 12.9255V15.149C39.5301 15.6588 39.1119 16.0745 38.599 16.0745C38.0862 16.0745 37.668 15.6588 37.668 15.149V12.9255C37.668 12.4157 38.0822 12 38.599 12C38.8555 12 39.0882 12.102 39.2579 12.2706C39.4236 12.4392 39.5301 12.6706 39.5301 12.9255Z" fill="white"/>
<path d="M42.5206 30.3647C41.5461 31.3726 40.1771 32 38.6661 32H30.3339C27.3908 32 25 29.6236 25 26.6981V18.2118C25 16.7647 25.6076 15.4549 26.586 14.5255L27.9076 15.8392C27.2645 16.4314 26.8621 17.2745 26.8621 18.2118V26.8981C26.8621 28.6902 28.3297 30.149 30.1287 30.149H38.8713C39.8142 30.149 40.6663 29.749 41.2581 29.1098L42.5206 30.3647Z" fill="url(#paint0_linear_4673_6207)"/>
<path d="M38.8831 17.8621H36.8885C36.2755 17.8621 35.7285 18.1318 35.3513 18.5558C35.224 18.7003 35.1155 18.8593 35.0353 19.0327C34.8939 19.317 34.8137 19.6397 34.8137 19.9818V22.0196C34.8137 22.1834 34.941 22.3183 35.1014 22.3183H37.1007C37.4355 22.3183 37.7514 22.2364 38.0296 22.0919C38.1993 22.0052 38.355 21.8992 38.4917 21.7691C38.7463 21.533 38.9397 21.2343 39.0575 20.9019C39.1236 20.6996 39.1566 20.4876 39.1566 20.2805L39.1754 19.5627V18.1607C39.1754 17.997 39.0434 17.8621 38.8831 17.8621Z" fill="white"/>
<path d="M33.7945 23.061H31.7999C31.1916 23.061 30.6446 23.3262 30.2674 23.7555C29.9326 24.1316 29.7251 24.6332 29.7251 25.1782V27.223C29.7251 27.387 29.8571 27.5172 30.0174 27.5172H32.012C32.5496 27.5172 33.04 27.3098 33.4078 26.9674C33.6577 26.7359 33.8558 26.4369 33.9689 26.0993C34.0397 25.9016 34.0679 25.6894 34.0727 25.4772L34.0868 24.7634V23.3552C34.0868 23.1912 33.9548 23.061 33.7945 23.061Z" fill="white"/>
<path d="M33.7945 17.8621H31.7999C31.1916 17.8621 30.6446 18.1318 30.2674 18.5558C29.9326 18.9316 29.7251 19.4326 29.7251 19.9818V22.0196C29.7251 22.1834 29.8571 22.3183 30.0174 22.3183H32.012C32.5496 22.3183 33.04 22.1111 33.4078 21.7691C33.6577 21.533 33.8558 21.2343 33.9689 20.9019C34.0397 20.6996 34.0679 20.4876 34.0727 20.2805L34.0868 19.5627V18.1607C34.0868 17.997 33.9548 17.8621 33.7945 17.8621Z" fill="white"/>
<path d="M38.8831 23.061H36.8885C36.2755 23.061 35.7285 23.3262 35.3513 23.7555C35.0165 24.1316 34.8137 24.6332 34.8137 25.1782V27.223C34.8137 27.387 34.941 27.5172 35.1014 27.5172H37.1007C37.6382 27.5172 38.1239 27.3098 38.4917 26.9674C38.7463 26.7359 38.9397 26.4369 39.0575 26.0993C39.1236 25.9016 39.1566 25.6894 39.1566 25.4772L39.1754 24.7634V23.3552C39.1754 23.1912 39.0434 23.061 38.8831 23.061Z" fill="white"/>
</g>
</g>
<defs>
<linearGradient id="paint0_linear_4673_6207" x1="26.5347" y1="30.4157" x2="34.5031" y2="22.3953" gradientUnits="userSpaceOnUse">
<stop stop-color="white"/>
<stop offset="0.01" stop-color="white" stop-opacity="0.99"/>
<stop offset="0.23" stop-color="white" stop-opacity="0.81"/>
<stop offset="0.45" stop-color="white" stop-opacity="0.68"/>
<stop offset="0.65" stop-color="white" stop-opacity="0.58"/>
<stop offset="0.84" stop-color="white" stop-opacity="0.52"/>
<stop offset="1" stop-color="white" stop-opacity="0.5"/>
</linearGradient>
<clipPath id="clip0_4673_6207">
<rect width="19" height="20" fill="white" transform="translate(25 12)"/>
</clipPath>
</defs>
</svg>
