<svg width="56" height="45" viewBox="0 0 56 45" fill="none" xmlns="http://www.w3.org/2000/svg">
<mask id="mask0_4673_6183" style="mask-type:alpha" maskUnits="userSpaceOnUse" x="0" y="0" width="56" height="45">
<rect width="56" height="45" fill="#D9D9D9"/>
</mask>
<g mask="url(#mask0_4673_6183)">
<circle cx="33.5" cy="22.5" r="22.5" fill="white" fill-opacity="0.3"/>
<circle cx="33.5" cy="22.5" r="20.5" fill="white"/>
<path d="M27.8126 13.5647V15.1334C27.8126 15.2118 27.7688 15.2785 27.6972 15.3138C27.4186 15.451 27.1599 15.6314 26.9331 15.8392L25.5999 14.5255C25.8187 14.3177 26.0615 14.1255 26.3162 13.9608C26.6943 13.7138 27.1082 13.5138 27.546 13.3687C27.6773 13.3255 27.8126 13.4275 27.8126 13.5647Z" fill="#2A71F3"/>
<path d="M43.1666 18.2118V26.6981C43.1666 28.1216 42.5936 29.4118 41.6742 30.3647L40.4007 29.1098C40.9539 28.5294 41.2882 27.753 41.2882 26.8981V18.2118C41.2882 16.9451 40.544 15.8471 39.4694 15.3138C39.3978 15.2785 39.354 15.2118 39.354 15.1334V13.5647C39.354 13.4275 39.4893 13.3255 39.6206 13.3687C40.0584 13.5138 40.4723 13.7138 40.8504 13.9608C42.2473 14.8745 43.1666 16.4392 43.1666 18.2118Z" fill="#2A71F3"/>
<path d="M34.5225 12.9255V15.149C34.5225 15.6588 34.1006 16.0745 33.5833 16.0745C33.0659 16.0745 32.644 15.6588 32.644 15.149V12.9255C32.644 12.4157 33.0659 12 33.5833 12C33.842 12 34.0768 12.102 34.2479 12.2706C34.419 12.4392 34.5225 12.6706 34.5225 12.9255Z" fill="#2A71F3"/>
<path d="M30.3875 12.9255V15.149C30.3875 15.6588 29.9696 16.0745 29.4483 16.0745C28.9269 16.0745 28.509 15.6588 28.509 15.149V12.9255C28.509 12.4157 28.9309 12 29.4483 12C29.7069 12 29.9457 12.102 30.1129 12.2706C30.284 12.4392 30.3875 12.6706 30.3875 12.9255Z" fill="#2A71F3"/>
<path d="M38.6575 12.9255V15.149C38.6575 15.6588 38.2357 16.0745 37.7183 16.0745C37.2009 16.0745 36.7791 15.6588 36.7791 15.149V12.9255C36.7791 12.4157 37.1969 12 37.7183 12C37.977 12 38.2118 12.102 38.3829 12.2706C38.5501 12.4392 38.6575 12.6706 38.6575 12.9255Z" fill="#2A71F3"/>
<path d="M41.6742 30.3647C40.6912 31.3726 39.3103 32 37.786 32H29.3807C26.4118 32 24 29.6236 24 26.6981V18.2118C24 16.7647 24.6129 15.4549 25.5999 14.5255L26.9331 15.8392C26.2844 16.4314 25.8785 17.2745 25.8785 18.2118V26.8981C25.8785 28.6902 27.3589 30.149 29.1737 30.149H37.9929C38.9441 30.149 39.8037 29.749 40.4007 29.1098L41.6742 30.3647Z" fill="url(#paint0_linear_4673_6183)"/>
<path d="M38.005 17.8621H35.9929C35.3745 17.8621 34.8227 18.1318 34.4422 18.5558C34.3137 18.7003 34.2043 18.8593 34.1235 19.0327C33.9808 19.317 33.8999 19.6397 33.8999 19.9818V22.0196C33.8999 22.1834 34.0283 22.3183 34.1901 22.3183H36.2069C36.5446 22.3183 36.8633 22.2364 37.144 22.0919C37.3152 22.0052 37.4722 21.8992 37.6101 21.7691C37.867 21.533 38.062 21.2343 38.181 20.9019C38.2475 20.6996 38.2808 20.4876 38.2808 20.2805L38.2999 19.5627V18.1607C38.2999 17.997 38.1667 17.8621 38.005 17.8621Z" fill="#31ADEE"/>
<path d="M32.8717 23.061H30.8596C30.2459 23.061 29.6942 23.3262 29.3136 23.7555C28.9759 24.1316 28.7666 24.6332 28.7666 25.1782V27.223C28.7666 27.387 28.8998 27.5172 29.0615 27.5172H31.0736C31.6159 27.5172 32.1106 27.3098 32.4816 26.9674C32.7337 26.7359 32.9335 26.4369 33.0477 26.0993C33.119 25.9016 33.1475 25.6894 33.1523 25.4772L33.1666 24.7634V23.3552C33.1666 23.1912 33.0334 23.061 32.8717 23.061Z" fill="#2032BB"/>
<path d="M32.8717 17.8621H30.8596C30.2459 17.8621 29.6942 18.1318 29.3136 18.5558C28.9759 18.9316 28.7666 19.4326 28.7666 19.9818V22.0196C28.7666 22.1834 28.8998 22.3183 29.0615 22.3183H31.0736C31.6159 22.3183 32.1106 22.1111 32.4816 21.7691C32.7337 21.533 32.9335 21.2343 33.0477 20.9019C33.119 20.6996 33.1475 20.4876 33.1523 20.2805L33.1666 19.5627V18.1607C33.1666 17.997 33.0334 17.8621 32.8717 17.8621Z" fill="#2A71F3"/>
<path d="M38.005 23.061H35.9929C35.3745 23.061 34.8227 23.3262 34.4422 23.7555C34.1044 24.1316 33.8999 24.6332 33.8999 25.1782V27.223C33.8999 27.387 34.0283 27.5172 34.1901 27.5172H36.2069C36.7492 27.5172 37.2391 27.3098 37.6101 26.9674C37.867 26.7359 38.062 26.4369 38.181 26.0993C38.2475 25.9016 38.2808 25.6894 38.2808 25.4772L38.2999 24.7634V23.3552C38.2999 23.1912 38.1667 23.061 38.005 23.061Z" fill="#FCB62B"/>
</g>
<defs>
<linearGradient id="paint0_linear_4673_6183" x1="25.5481" y1="30.4157" x2="33.5158" y2="22.3257" gradientUnits="userSpaceOnUse">
<stop stop-color="#2A71F3"/>
<stop offset="0.01" stop-color="#2A71F3" stop-opacity="0.99"/>
<stop offset="0.23" stop-color="#2A71F3" stop-opacity="0.81"/>
<stop offset="0.45" stop-color="#2A71F3" stop-opacity="0.68"/>
<stop offset="0.65" stop-color="#2A71F3" stop-opacity="0.58"/>
<stop offset="0.84" stop-color="#2A71F3" stop-opacity="0.52"/>
<stop offset="1" stop-color="#2A71F3" stop-opacity="0.5"/>
</linearGradient>
</defs>
</svg>
