<svg width="25" height="23" viewBox="0 0 25 23" fill="none" xmlns="http://www.w3.org/2000/svg">
<g clip-path="url(#clip0_2573_18800)">
<path d="M18.5222 7.87941C18.2171 5.88088 17.2665 4.08971 15.8958 2.72647C14.2155 1.04118 11.8809 0 9.31636 0C5.83652 0 2.80327 1.90588 1.20264 4.72941L3.02436 6.54706C4.08997 4.13382 6.50862 2.44412 9.31636 2.44412C12.6547 2.44412 15.4492 4.83971 16.055 7.99853C16.1345 8.41765 16.1788 8.85 16.1788 9.29559C16.1788 9.525 16.1655 9.75 16.1434 9.975C16.6253 9.82941 17.1294 9.75882 17.6467 9.75882C17.9784 9.75882 18.3011 9.78971 18.6151 9.84706C18.6239 9.66177 18.6284 9.48088 18.6284 9.29559C18.6284 8.81471 18.593 8.33824 18.5222 7.87941ZM12.0622 15.5647L12.2656 15.7676C12.2523 15.675 12.2435 15.5824 12.2391 15.4897C12.1816 15.5162 12.1197 15.5426 12.0622 15.5647Z" fill="white"/>
<path d="M18.5224 7.87911C18.2394 7.84382 17.9431 7.82617 17.6513 7.82617C17.103 7.82617 16.5724 7.88352 16.0595 7.99823C12.7654 8.72617 10.2981 11.66 10.2981 15.1629C10.2981 15.4673 10.3158 15.7673 10.3556 16.0629C10.4529 16.9056 10.7005 17.6953 11.063 18.4188C11.4212 19.1379 11.8899 19.7865 12.4559 20.3468C13.7824 21.6791 15.6218 22.4997 17.6513 22.4997H25.0045V15.1629C25.0045 11.4085 22.1702 8.31147 18.5224 7.87911ZM23.0678 20.5673H17.6513C15.6483 20.5673 13.8929 19.4732 12.9555 17.8497C12.5487 17.1482 12.2923 16.3453 12.2436 15.4938C12.2392 15.3879 12.2348 15.2732 12.2348 15.1673C12.2348 12.71 13.8929 10.6276 16.1479 9.97911C16.6299 9.83794 17.134 9.76294 17.6513 9.76294C17.9785 9.76294 18.3013 9.79382 18.6152 9.85117C21.1444 10.3056 23.0678 12.5159 23.0678 15.1673V20.5718V20.5673Z" fill="white"/>
<path d="M13.8398 7.94146H4.86382C4.37744 7.94146 3.97949 7.5444 3.97949 7.05911C3.97949 6.57382 4.37744 6.17676 4.86382 6.17676H13.8398C14.3261 6.17676 14.7241 6.57382 14.7241 7.05911C14.7241 7.5444 14.3261 7.94146 13.8398 7.94146Z" fill="white"/>
<path d="M10.612 10.5879H4.86382C4.37744 10.5879 3.97949 10.1909 3.97949 9.7056C3.97949 9.2203 4.37744 8.82324 4.86382 8.82324H10.612C11.0983 8.82324 11.4963 9.2203 11.4963 9.7056C11.4963 10.1909 11.0983 10.5879 10.612 10.5879Z" fill="white"/>
<path d="M8.84331 13.2354H4.86382C4.37744 13.2354 3.97949 12.8384 3.97949 12.3531C3.97949 11.8678 4.37744 11.4707 4.86382 11.4707H8.84331C9.32969 11.4707 9.72764 11.8678 9.72764 12.3531C9.72764 12.8384 9.32969 13.2354 8.84331 13.2354Z" fill="white"/>
<path d="M16.4573 18.5294C16.4573 18.5294 16.4441 18.5294 16.4397 18.5294C16.1788 18.525 15.9356 18.4015 15.7764 18.1897L14.3969 16.3765C14.1094 16.0015 14.1846 15.4633 14.5605 15.1809C14.9363 14.8941 15.4757 14.9691 15.7587 15.3441L16.4839 16.3015L19.8709 12.2206C20.1715 11.8589 20.711 11.8059 21.078 12.1059C21.4405 12.4059 21.4936 12.9441 21.1929 13.3103L17.1162 18.2206C16.9526 18.4147 16.7138 18.5294 16.4573 18.5294Z" fill="white"/>
<path d="M12.951 17.8501C12.3541 18.1016 11.7174 18.3001 11.0585 18.4192C10.497 18.5339 9.91334 18.5868 9.31641 18.5868H0V9.29567C0 7.63684 0.437743 6.07949 1.20269 4.72949L3.02441 6.54714C2.65741 7.38979 2.44959 8.32067 2.44959 9.29567V16.1427H9.31641C9.66572 16.1427 10.015 16.1163 10.3555 16.0633C10.9524 15.9707 11.5228 15.803 12.0623 15.5648L12.2657 15.7677C12.3497 16.5177 12.5884 17.2236 12.951 17.8501Z" fill="url(#paint0_linear_2573_18800)"/>
</g>
<defs>
<linearGradient id="paint0_linear_2573_18800" x1="-0.119385" y1="18.4677" x2="7.41149" y2="10.9244" gradientUnits="userSpaceOnUse">
<stop stop-color="white"/>
<stop offset="1" stop-color="white" stop-opacity="0.5"/>
</linearGradient>
<clipPath id="clip0_2573_18800">
<rect width="25" height="22.5" fill="white"/>
</clipPath>
</defs>
</svg>
