<svg width="56" height="45" viewBox="0 0 56 45" fill="none" xmlns="http://www.w3.org/2000/svg">
<mask id="mask0_9976_591" style="mask-type:alpha" maskUnits="userSpaceOnUse" x="0" y="0" width="56" height="45">
<rect width="56" height="45" fill="#D9D9D9"/>
</mask>
<g mask="url(#mask0_9976_591)">
<circle cx="33.5" cy="22.5" r="22.5" fill="white" fill-opacity="0.3"/>
<circle cx="33.5" cy="22.5" r="20.5" fill="white"/>
<path d="M31.7762 19.909C31.7762 20.2184 31.7132 20.5158 31.5825 20.7966C31.5389 20.8897 31.548 20.9498 31.6321 21.0129C31.7672 21.115 31.8979 21.2262 32.0241 21.3388C32.2343 21.5281 32.2644 21.7999 32.1052 21.9951C31.9294 22.2084 31.6531 22.2354 31.4233 22.0567C31.3001 21.9621 31.1785 21.8645 31.0658 21.7578C30.9697 21.6662 30.8961 21.6677 30.7835 21.7443C29.9785 22.2865 28.9527 22.2475 28.1882 21.6557C27.3817 21.0324 27.1023 19.939 27.5199 19.0079C27.5679 18.9012 27.5439 18.8457 27.4613 18.7826C27.3261 18.679 27.1954 18.5693 27.0678 18.4567C26.856 18.2734 26.8335 17.9941 27.0092 17.7868C27.1774 17.5886 27.4568 17.566 27.6685 17.7358C27.7977 17.8394 27.9284 17.94 28.05 18.0527C28.1401 18.1368 28.2062 18.1323 28.3084 18.0632C29.3056 17.3918 30.6138 17.6156 31.3362 18.5753C31.623 18.9583 31.7762 19.4209 31.7762 19.9075V19.909ZM28.2783 19.8925C28.2753 20.6074 28.8325 21.1766 29.5429 21.1856C30.2413 21.1961 30.824 20.6164 30.8285 19.909C30.833 19.1941 30.2608 18.6189 29.5444 18.6174C28.8445 18.6174 28.2798 19.1836 28.2783 19.891V19.8925Z" fill="#2B71F3"/>
<path d="M31.1344 31.2108C29.9434 31.2108 28.7509 31.2108 27.5599 31.2108C27.5028 31.2108 27.4457 31.2123 27.3902 31.1958C27.243 31.1537 27.1574 31.0261 27.1739 30.8714C27.1889 30.7287 27.3061 30.619 27.4563 30.6145C27.5734 30.6115 27.6906 30.6145 27.8077 30.6145C30.1281 30.6145 32.4471 30.6145 34.7675 30.6145C34.8441 30.6145 34.9192 30.616 34.9853 30.6641C35.0874 30.7377 35.134 30.8383 35.1099 30.9615C35.0874 31.0831 35.0123 31.1642 34.8892 31.1958C34.8336 31.2108 34.7765 31.2093 34.7194 31.2093C33.5254 31.2093 32.3299 31.2093 31.1359 31.2093L31.1344 31.2108Z" fill="#2032BB"/>
<path d="M35.5571 26.7562C35.5586 26.4258 35.6247 26.1089 35.7718 25.813C35.8169 25.7244 35.8064 25.6688 35.7268 25.6102C35.5946 25.5111 35.4685 25.403 35.3423 25.2963C35.1275 25.1161 35.093 24.8322 35.2582 24.628C35.4324 24.4117 35.7088 24.3862 35.9386 24.5694C36.0722 24.676 36.2044 24.7827 36.3321 24.8953C36.4072 24.9614 36.4642 24.9704 36.5558 24.9118C37.4209 24.3561 38.4392 24.4207 39.2217 25.074C40.2115 25.9016 40.273 27.45 39.3389 28.3422C38.7081 28.9444 37.9556 29.1442 37.1191 28.8799C36.2975 28.6215 35.7974 28.0418 35.6006 27.2037C35.5796 27.1121 35.5691 27.016 35.5586 26.9214C35.5526 26.8673 35.5586 26.8117 35.5586 26.7562H35.5571ZM36.4988 26.7637C36.4988 27.4681 37.077 28.0463 37.7799 28.0478C38.4738 28.0478 39.067 27.4531 39.064 26.7607C39.061 26.0593 38.4768 25.4766 37.7769 25.4796C37.071 25.4811 36.4973 26.0578 36.4988 26.7637Z" fill="#F9B62C"/>
<path d="M29.7616 29.7735C29.0032 29.7735 28.2447 29.7735 27.4862 29.7735C27.2865 29.7735 27.1603 29.6413 27.1738 29.4521C27.1829 29.3304 27.2715 29.2223 27.3901 29.1937C27.4382 29.1817 27.4907 29.1787 27.5403 29.1772C29.0197 29.1772 30.4975 29.1772 31.9769 29.1772C32.0265 29.1772 32.079 29.1817 32.1271 29.1922C32.2728 29.2238 32.3749 29.3635 32.3599 29.5061C32.3434 29.6563 32.2262 29.769 32.0745 29.772C31.8282 29.775 31.5819 29.7735 31.3356 29.7735C30.8114 29.7735 30.2858 29.7735 29.7616 29.7735Z" fill="#2032BB"/>
<path d="M29.2352 28.3497C28.654 28.3497 28.0727 28.3497 27.4915 28.3497C27.3068 28.3497 27.1791 28.2355 27.1731 28.0703C27.1671 27.9051 27.2752 27.7775 27.4389 27.7564C27.4645 27.7534 27.49 27.7534 27.514 27.7534C28.6585 27.7534 29.8014 27.7534 30.9459 27.7534C31.09 27.7534 31.2087 27.797 31.2718 27.9352C31.3604 28.1334 31.2162 28.3482 30.9909 28.3497C30.5644 28.3527 30.1378 28.3497 29.7113 28.3497C29.5536 28.3497 29.3959 28.3497 29.2367 28.3497H29.2352Z" fill="#2032BB"/>
<path d="M32.5664 22.7296C32.5709 22.5839 32.658 22.4412 32.8307 22.3556C33.0185 22.261 33.1927 22.3015 33.3489 22.4292C33.6478 22.6725 33.9436 22.9203 34.241 23.1651C34.3717 23.2733 34.5069 23.3784 34.6315 23.494C34.8373 23.6833 34.8553 23.9491 34.6856 24.1519C34.5219 24.3471 34.238 24.3756 34.0263 24.2059C33.5907 23.853 33.1582 23.494 32.7271 23.1366C32.616 23.045 32.5664 22.9218 32.5664 22.7311V22.7296Z" fill="#2B71F3"/>
<path d="M41.6995 25.4961C41.6289 25.4961 41.5613 25.472 41.5072 25.427L40.911 24.9298C40.8419 24.8728 40.8029 24.7887 40.8029 24.6986C40.8029 22.7671 40.8029 20.8372 40.8029 18.9057V15.3087H29.4875C29.417 15.3087 29.3494 15.2832 29.2953 15.2381L28.5789 14.6403C28.4828 14.5592 28.4452 14.4256 28.4888 14.3069C28.5323 14.1883 28.645 14.1087 28.7711 14.1087H39.8266H40.4244C40.549 14.1087 40.6752 14.1087 40.7999 14.1087C40.7999 14.0366 40.7999 13.96 40.8029 13.8864C40.8104 13.7077 40.7443 13.5379 40.6196 13.4073C40.489 13.2706 40.3012 13.1925 40.1075 13.1925C39.1102 13.197 38.1175 13.1985 37.1232 13.1985H33.5231C33.5156 13.1985 33.5081 13.1985 33.5006 13.1985H29.9591C28.9574 13.1985 27.9541 13.1985 26.9523 13.1955C26.8833 13.1955 26.8142 13.17 26.7616 13.1264L26.1548 12.6203C26.0722 12.5512 26.0332 12.4431 26.0512 12.3379C26.0692 12.2328 26.1443 12.1442 26.2449 12.1081C26.3531 12.0691 26.4672 12.0406 26.5859 12.021C26.6685 12.0075 26.7451 12.006 26.8232 12.006C26.8277 12.006 26.8337 12.006 26.8382 12.006C26.8427 12.006 26.8472 12.006 26.8532 12.006H37.0015C37.2734 12.006 37.5467 12.006 37.8186 12.006H37.9357C38.2466 12.006 38.5575 12.0075 38.8684 12.0075C39.2874 12.0075 39.7065 12.006 40.127 12H40.1495C41.0387 12 41.9969 12.7134 41.9984 13.8669C41.9999 15.564 41.9984 17.2627 41.9984 18.9598V25.1957C41.9984 25.3113 41.9308 25.418 41.8256 25.4675C41.7866 25.4856 41.743 25.4961 41.698 25.4961H41.6995Z" fill="#2032BB"/>
<path d="M26.8533 33.4456C25.8321 33.4456 25 32.6166 25 31.5968C25 28.192 25 22.5478 25 18.1217V13.8894C25 13.0558 25.4806 12.3725 26.2481 12.1036C26.2796 12.0931 26.3142 12.0871 26.3472 12.0871C26.4178 12.0871 26.4854 12.1126 26.5394 12.1562L27.1462 12.6623C27.2438 12.7434 27.2799 12.8786 27.2348 12.9973C27.1913 13.1144 27.0786 13.1925 26.9525 13.1925H26.8789C26.5394 13.1925 26.2481 13.4343 26.203 13.7542C26.1895 13.8458 26.1925 13.945 26.194 14.0516C26.194 14.0696 26.194 14.0891 26.194 14.1072C26.2511 14.1072 26.7257 14.1072 26.7257 14.1072C26.8038 14.1072 26.8834 14.1072 26.963 14.1072H28.7668C28.8374 14.1072 28.9049 14.1327 28.959 14.1778L29.6754 14.7755C29.7715 14.8566 29.8091 14.9903 29.7655 15.1089C29.722 15.2276 29.6093 15.3072 29.4832 15.3072H26.197C26.197 19.5681 26.197 27.3915 26.197 31.5562C26.197 31.5998 26.197 31.6403 26.2015 31.6764C26.2466 32.0113 26.5304 32.2546 26.8759 32.2546C27.4331 32.2501 27.9843 32.2486 28.537 32.2486H30.7733H35.5854C37.0933 32.2486 38.5997 32.2486 40.1061 32.2546C40.2953 32.2546 40.4711 32.1825 40.6002 32.0534C40.7324 31.9212 40.8045 31.744 40.8045 31.5562C40.8045 30.9014 40.803 28.7432 40.803 26.9845V24.6971C40.803 24.5814 40.8706 24.4748 40.9757 24.4252C41.0148 24.4072 41.0583 24.3967 41.1034 24.3967C41.174 24.3967 41.2415 24.4207 41.2956 24.4658L41.8919 24.9629C41.9609 25.02 42 25.1041 42 25.1942C42 26.0713 42 30.7047 42 31.5818C42 32.519 41.3241 33.2984 40.3945 33.4336C40.3254 33.4441 40.2608 33.4456 40.1992 33.4456H33.5038H26.8548H26.8533Z" fill="url(#paint0_linear_9976_591)"/>
</g>
<defs>
<linearGradient id="paint0_linear_9976_591" x1="27.8555" y1="29.8941" x2="37.5145" y2="22.2191" gradientUnits="userSpaceOnUse">
<stop stop-color="#2B71F3"/>
<stop offset="1" stop-color="#2B71F3" stop-opacity="0.2"/>
</linearGradient>
</defs>
</svg>
