<svg width="42" height="34" viewBox="0 0 42 34" fill="none" xmlns="http://www.w3.org/2000/svg">
<path d="M0 20C0 8.9543 8.9543 0 20 0H39C40.6568 0 42 1.34315 42 3V14C42 25.0457 33.0457 34 22 34H3C1.34315 34 0 32.6569 0 31V20Z" fill="#2A71F3"/>
<mask id="mask0_6131_33337" style="mask-type:alpha" maskUnits="userSpaceOnUse" x="9" y="4" width="24" height="24">
<rect x="9" y="4" width="24" height="24" fill="white"/>
</mask>
<g mask="url(#mask0_6131_33337)">
<path d="M21 19.575C20.8667 19.575 20.7417 19.5542 20.625 19.5125C20.5083 19.4708 20.4 19.4 20.3 19.3L16.7 15.7C16.5 15.5 16.4042 15.2667 16.4125 15C16.4208 14.7333 16.5167 14.5 16.7 14.3C16.9 14.1 17.1375 13.9958 17.4125 13.9875C17.6875 13.9792 17.925 14.075 18.125 14.275L20 16.15V9C20 8.71667 20.0958 8.47917 20.2875 8.2875C20.4792 8.09583 20.7167 8 21 8C21.2833 8 21.5208 8.09583 21.7125 8.2875C21.9042 8.47917 22 8.71667 22 9V16.15L23.875 14.275C24.075 14.075 24.3125 13.9792 24.5875 13.9875C24.8625 13.9958 25.1 14.1 25.3 14.3C25.4833 14.5 25.5792 14.7333 25.5875 15C25.5958 15.2667 25.5 15.5 25.3 15.7L21.7 19.3C21.6 19.4 21.4917 19.4708 21.375 19.5125C21.2583 19.5542 21.1333 19.575 21 19.575ZM15 24C14.45 24 13.9792 23.8042 13.5875 23.4125C13.1958 23.0208 13 22.55 13 22V20C13 19.7167 13.0958 19.4792 13.2875 19.2875C13.4792 19.0958 13.7167 19 14 19C14.2833 19 14.5208 19.0958 14.7125 19.2875C14.9042 19.4792 15 19.7167 15 20V22H27V20C27 19.7167 27.0958 19.4792 27.2875 19.2875C27.4792 19.0958 27.7167 19 28 19C28.2833 19 28.5208 19.0958 28.7125 19.2875C28.9042 19.4792 29 19.7167 29 20V22C29 22.55 28.8042 23.0208 28.4125 23.4125C28.0208 23.8042 27.55 24 27 24H15Z" fill="white"/>
</g>
</svg>
