<svg width="40" height="33" viewBox="0 0 40 33" fill="none" xmlns="http://www.w3.org/2000/svg">
<path d="M0 18C0 8.05887 8.05888 0 18 0H34.085C36.8465 0 39.085 2.23858 39.085 5V15C39.085 24.9411 31.0262 33 21.085 33H4.99999C2.23857 33 0 30.7614 0 28V18Z" fill="#348DFD"/>
<g clip-path="url(#clip0_2066_4321)">
<mask id="mask0_2066_4321" style="mask-type:luminance" maskUnits="userSpaceOnUse" x="8" y="4" width="25" height="24">
<path d="M32.4546 4H8.45459V28H32.4546V4Z" fill="white"/>
</mask>
<g mask="url(#mask0_2066_4321)">
<path d="M28.4343 23.9978C26.5216 26.0194 23.8201 27.2749 20.8241 27.2749H10.721C9.90967 27.2749 9.25244 26.6131 9.25244 25.8018V15.7032C9.25244 12.7026 10.5125 10.0012 12.5295 8.09302L14.0706 9.63409C14.0026 9.69302 13.9346 9.75647 13.8666 9.82446C12.2938 11.3927 11.4326 13.4823 11.4326 15.6987V25.0947H20.8241C23.0451 25.0947 25.1301 24.2245 26.7029 22.6607C26.7709 22.5927 26.8343 22.5247 26.8932 22.4568L28.4343 23.9978Z" fill="url(#paint0_linear_2066_4321)"/>
<path d="M19.7406 5.21484H24.8806C25.0528 5.21484 25.1389 5.42334 25.0165 5.54572L23.2307 7.33609C23.1945 7.37235 23.1446 7.39048 23.0947 7.39048H19.7406C17.6148 7.39048 15.6069 8.18368 14.0704 9.63411L12.5293 8.09303C14.4103 6.30719 16.9486 5.21484 19.7406 5.21484Z" fill="white"/>
<path d="M31.1266 11.216C31.1946 11.148 31.3079 11.1979 31.3079 11.2931V16.7866C31.3079 19.5877 30.2111 22.1214 28.4297 24.0024L26.8887 22.4613C28.3346 20.9157 29.1278 18.9123 29.1278 16.7866V13.2557C29.1278 13.2285 29.1368 13.2013 29.1595 13.1786L31.1221 11.216H31.1266Z" fill="white"/>
<path d="M28.3847 4.75697C28.1399 4.72978 27.8951 4.8295 27.7184 5.00173L26.8662 5.84933C26.7756 5.92185 26.7575 5.95357 26.8118 5.99437C27.2152 6.28899 27.6594 6.53374 28.0447 6.85556C28.7291 7.43573 29.3592 8.07029 29.8895 8.7955C30.0617 9.03573 30.2294 9.27595 30.3835 9.52978C30.4107 9.57057 30.4334 9.61137 30.4832 9.55244C30.7824 9.23969 31.0906 8.94508 31.3943 8.63686C31.5575 8.46916 31.6481 8.24253 31.63 8.00683C31.4895 6.04876 30.4062 4.96547 28.3801 4.75244L28.3847 4.75697Z" fill="white"/>
<path d="M29.3634 10.6358C29.3634 10.6856 29.3316 10.7038 29.3044 10.731C28.96 11.0754 28.6109 11.4199 28.2665 11.7644C27.7498 12.2811 27.233 12.7978 26.7209 13.3145C26.1588 13.8766 25.5877 14.4431 25.0257 15.0007C24.5362 15.4947 24.0512 15.9797 23.5617 16.4737C23.1175 16.9179 22.6733 17.3576 22.2291 17.7973L18.5713 14.1395C20.0172 12.6936 21.4585 11.2477 22.909 9.79726C23.7928 8.9134 24.6812 8.02955 25.5651 7.1457C25.7192 6.99159 25.7192 6.99159 25.9095 7.09131C27.1787 7.74853 28.194 8.67318 28.9554 9.88791C29.1005 10.1145 29.2274 10.3502 29.3452 10.5905C29.3543 10.6086 29.3588 10.6222 29.3634 10.6358Z" fill="white"/>
<path d="M22.2292 17.7973C21.9618 18.0693 21.6898 18.3412 21.4178 18.6086C21.2864 18.7446 21.2819 18.7446 21.1822 18.586C20.7244 17.8653 20.1986 17.2081 19.5867 16.6188C19.0201 16.0704 18.3991 15.5854 17.7193 15.1729C17.6105 15.1095 17.6105 15.1049 17.7011 15.0188C17.9912 14.7287 18.2904 14.4341 18.5805 14.144L22.2382 17.8018L22.2292 17.7973Z" fill="url(#paint1_linear_2066_4321)"/>
<path d="M18.0728 17.09C17.6286 16.7365 17.1527 16.4328 16.6405 16.1835C16.5952 16.1609 16.5544 16.1518 16.5091 16.1971C16.4048 16.3059 16.296 16.4147 16.1873 16.5189C16.1374 16.5688 16.1147 16.6232 16.1147 16.6957C16.1147 17.847 16.1147 18.9937 16.1147 20.145C16.1147 20.2583 16.1147 20.2583 16.2281 20.2583C16.8037 20.2583 17.3793 20.2583 17.9504 20.2583C18.5215 20.2583 19.1017 20.2583 19.6728 20.2583C19.7363 20.2583 19.7907 20.2447 19.836 20.1994C19.9448 20.0861 20.0581 19.9773 20.1669 19.864C20.2031 19.8322 20.2077 19.8005 20.1895 19.7552C20.1759 19.7235 20.1623 19.6917 20.1487 19.66C19.6366 18.6538 18.9521 17.7926 18.0683 17.09H18.0728Z" fill="url(#paint2_linear_2066_4321)"/>
</g>
</g>
<defs>
<linearGradient id="paint0_linear_2066_4321" x1="9.68304" y1="26.8443" x2="20.4842" y2="16.0477" gradientUnits="userSpaceOnUse">
<stop stop-color="white"/>
<stop offset="1" stop-color="white" stop-opacity="0.5"/>
</linearGradient>
<linearGradient id="paint1_linear_2066_4321" x1="19.4462" y1="16.927" x2="20.4025" y2="15.9661" gradientUnits="userSpaceOnUse">
<stop stop-color="white" stop-opacity="0.5"/>
<stop offset="1" stop-color="white" stop-opacity="0.5"/>
</linearGradient>
<linearGradient id="paint2_linear_2066_4321" x1="16.1329" y1="20.2402" x2="18.7164" y2="17.6611" gradientUnits="userSpaceOnUse">
<stop stop-color="white"/>
<stop offset="1" stop-color="white" stop-opacity="0.5"/>
</linearGradient>
<clipPath id="clip0_2066_4321">
<rect width="24" height="24" fill="white" transform="translate(8.45459 4)"/>
</clipPath>
</defs>
</svg>
