<svg width="40" height="34" viewBox="0 0 40 34" fill="none" xmlns="http://www.w3.org/2000/svg">
<path d="M0.544922 18.5C0.544922 8.55887 8.6038 0.5 18.5449 0.5H34.63C37.3914 0.5 39.63 2.73858 39.63 5.5V15.5C39.63 25.4411 31.5711 33.5 21.63 33.5H5.54492C2.78349 33.5 0.544922 31.2614 0.544922 28.5V18.5Z" fill="#348DFD"/>
<g clip-path="url(#clip0_2513_13470)">
<mask id="mask0_2513_13470" style="mask-type:luminance" maskUnits="userSpaceOnUse" x="8" y="4" width="25" height="25">
<path d="M32.9995 4.5H8.99951V28.5H32.9995V4.5Z" fill="white"/>
</mask>
<g mask="url(#mask0_2513_13470)">
<path d="M28.9791 24.4978C27.0664 26.5194 24.3649 27.7749 21.3689 27.7749H11.2658C10.4545 27.7749 9.79724 27.1131 9.79724 26.3018V16.2032C9.79724 13.2026 11.0573 10.5012 13.0743 8.59302L14.6154 10.1341C14.5474 10.193 14.4794 10.2565 14.4114 10.3245C12.8386 11.8927 11.9774 13.9823 11.9774 16.1987V25.5947H21.3689C23.5899 25.5947 25.6749 24.7245 27.2477 23.1607C27.3157 23.0927 27.3791 23.0247 27.438 22.9568L28.9791 24.4978Z" fill="url(#paint0_linear_2513_13470)"/>
<path d="M20.2856 5.71484H25.4256C25.5978 5.71484 25.6839 5.92334 25.5615 6.04572L23.7757 7.83609C23.7395 7.87235 23.6896 7.89048 23.6397 7.89048H20.2856C18.1598 7.89048 16.1519 8.68368 14.6154 10.1341L13.0743 8.59303C14.9553 6.80719 17.4936 5.71484 20.2856 5.71484Z" fill="white"/>
<path d="M31.6715 11.716C31.7395 11.648 31.8528 11.6979 31.8528 11.7931V17.2866C31.8528 20.0877 30.7559 22.6214 28.9746 24.5024L27.4335 22.9613C28.8794 21.4157 29.6726 19.4123 29.6726 17.2866V13.7557C29.6726 13.7285 29.6817 13.7013 29.7043 13.6786L31.6669 11.716H31.6715Z" fill="white"/>
<path d="M28.9293 5.25697C28.6845 5.22978 28.4397 5.3295 28.263 5.50173L27.4108 6.34933C27.3202 6.42185 27.3021 6.45357 27.3564 6.49437C27.7598 6.78899 28.204 7.03374 28.5893 7.35556C29.2737 7.93573 29.9038 8.57029 30.4341 9.2955C30.6063 9.53573 30.774 9.77595 30.9281 10.0298C30.9553 10.0706 30.978 10.1114 31.0278 10.0524C31.327 9.73969 31.6352 9.44508 31.9389 9.13686C32.1021 8.96916 32.1927 8.74253 32.1746 8.50683C32.0341 6.54876 30.9508 5.46547 28.9247 5.25244L28.9293 5.25697Z" fill="white"/>
<path d="M29.9083 11.1358C29.9083 11.1856 29.8766 11.2038 29.8494 11.231C29.5049 11.5754 29.1559 11.9199 28.8114 12.2644C28.2947 12.7811 27.778 13.2978 27.2658 13.8145C26.7038 14.3766 26.1327 14.9431 25.5706 15.5007C25.0811 15.9947 24.5961 16.4797 24.1066 16.9737C23.6624 17.4179 23.2182 17.8576 22.774 18.2973L19.1162 14.6395C20.5621 13.1936 22.0035 11.7477 23.4539 10.2973C24.3378 9.4134 25.2261 8.52955 26.11 7.6457C26.2641 7.49159 26.2641 7.49159 26.4545 7.59131C27.7236 8.24853 28.7389 9.17318 29.5004 10.3879C29.6454 10.6145 29.7723 10.8502 29.8902 11.0905C29.8992 11.1086 29.9038 11.1222 29.9083 11.1358Z" fill="white"/>
<path d="M22.774 18.2973C22.5066 18.5693 22.2346 18.8412 21.9627 19.1086C21.8312 19.2446 21.8267 19.2446 21.727 19.086C21.2692 18.3653 20.7434 17.7081 20.1315 17.1188C19.5649 16.5704 18.944 16.0854 18.2641 15.6729C18.1553 15.6095 18.1553 15.6049 18.246 15.5188C18.536 15.2287 18.8352 14.9341 19.1253 14.644L22.7831 18.3018L22.774 18.2973Z" fill="url(#paint1_linear_2513_13470)"/>
<path d="M18.6176 17.59C18.1734 17.2365 17.6975 16.9328 17.1853 16.6835C17.14 16.6609 17.0992 16.6518 17.0539 16.6971C16.9496 16.8059 16.8409 16.9147 16.7321 17.0189C16.6822 17.0688 16.6596 17.1232 16.6596 17.1957C16.6596 18.347 16.6596 19.4937 16.6596 20.645C16.6596 20.7583 16.6596 20.7583 16.7729 20.7583C17.3485 20.7583 17.9242 20.7583 18.4953 20.7583C19.0664 20.7583 19.6465 20.7583 20.2176 20.7583C20.2811 20.7583 20.3355 20.7447 20.3808 20.6994C20.4896 20.5861 20.6029 20.4773 20.7117 20.364C20.7479 20.3322 20.7525 20.3005 20.7343 20.2552C20.7208 20.2235 20.7072 20.1917 20.6936 20.16C20.1814 19.1538 19.497 18.2926 18.6131 17.59H18.6176Z" fill="url(#paint2_linear_2513_13470)"/>
</g>
</g>
<defs>
<linearGradient id="paint0_linear_2513_13470" x1="10.2278" y1="27.3443" x2="21.029" y2="16.5477" gradientUnits="userSpaceOnUse">
<stop stop-color="white"/>
<stop offset="1" stop-color="white" stop-opacity="0.5"/>
</linearGradient>
<linearGradient id="paint1_linear_2513_13470" x1="19.991" y1="17.427" x2="20.9474" y2="16.4661" gradientUnits="userSpaceOnUse">
<stop stop-color="white" stop-opacity="0.5"/>
<stop offset="1" stop-color="white" stop-opacity="0.5"/>
</linearGradient>
<linearGradient id="paint2_linear_2513_13470" x1="16.6777" y1="20.7402" x2="19.2613" y2="18.1611" gradientUnits="userSpaceOnUse">
<stop stop-color="white"/>
<stop offset="1" stop-color="white" stop-opacity="0.5"/>
</linearGradient>
<clipPath id="clip0_2513_13470">
<rect width="24" height="24" fill="white" transform="translate(8.99951 4.5)"/>
</clipPath>
</defs>
</svg>
