<svg width="23" height="22" viewBox="0 0 23 22" fill="none" xmlns="http://www.w3.org/2000/svg">
<mask id="mask0_2513_13299" style="mask-type:luminance" maskUnits="userSpaceOnUse" x="0" y="0" width="23" height="22">
<path d="M23 0H0V22H23V0Z" fill="white"/>
</mask>
<g mask="url(#mask0_2513_13299)">
<path d="M19.1471 18.3319C17.314 20.1849 14.7252 21.3358 11.854 21.3358H2.17183C1.3943 21.3358 0.764465 20.7292 0.764465 19.9855V10.7285C0.764465 7.97794 1.97202 5.50164 3.90497 3.75244L5.38184 5.1651C5.31668 5.21911 5.25153 5.27728 5.18637 5.3396C3.6791 6.77718 2.85379 8.69257 2.85379 10.7243V19.3373H11.854C13.9824 19.3373 15.9805 18.5396 17.4878 17.1062C17.5529 17.0438 17.6138 16.9815 17.6702 16.9192L19.1471 18.3319Z" fill="url(#paint0_linear_2513_13299)"/>
<path d="M10.8158 1.11353H15.7416C15.9067 1.11353 15.9892 1.30465 15.8719 1.41683L14.1605 3.058C14.1257 3.09124 14.078 3.10786 14.0302 3.10786H10.8158C8.77862 3.10786 6.85435 3.83496 5.38183 5.16452L3.90497 3.75186C5.70761 2.11485 8.1401 1.11353 10.8158 1.11353Z" fill="#348DFD"/>
<path d="M21.7273 6.61452C21.7924 6.55219 21.901 6.5979 21.901 6.68515V11.7208C21.901 14.2885 20.8498 16.6111 19.1428 18.3354L17.6659 16.9227C19.0515 15.5059 19.8117 13.6695 19.8117 11.7208V8.4842C19.8117 8.45928 19.8204 8.43435 19.8421 8.41357L21.7229 6.61452H21.7273Z" fill="#348DFD"/>
<path d="M19.0993 0.693852C18.8648 0.668923 18.6302 0.76033 18.4608 0.918215L17.6442 1.69517C17.5573 1.76165 17.5399 1.79074 17.5921 1.82813C17.9787 2.0982 18.4043 2.32256 18.7736 2.61755C19.4295 3.14938 20.0332 3.73106 20.5415 4.39584C20.7065 4.61604 20.8672 4.83625 21.0149 5.06892C21.041 5.10632 21.0627 5.14371 21.1105 5.0897C21.3972 4.80301 21.6925 4.53295 21.9836 4.25041C22.1399 4.09668 22.2268 3.88894 22.2094 3.67289C22.0748 1.87799 21.0366 0.884976 19.095 0.689697L19.0993 0.693852Z" fill="#348DFD"/>
<path d="M20.0375 6.0827C20.0375 6.1284 20.0071 6.14502 19.9811 6.16995C19.6509 6.48572 19.3165 6.80149 18.9863 7.11726C18.4912 7.59091 17.996 8.06457 17.5051 8.53822C16.9665 9.05343 16.4192 9.57278 15.8806 10.0838C15.4115 10.5367 14.9467 10.9813 14.4776 11.4342C14.0519 11.8413 13.6262 12.2444 13.2005 12.6474L9.69513 9.29441C11.0808 7.96901 12.4621 6.64361 13.8521 5.31405C14.6991 4.50385 15.5505 3.69365 16.3975 2.88345C16.5452 2.74219 16.5452 2.74219 16.7276 2.8336C17.9439 3.43605 18.9168 4.28364 19.6466 5.39715C19.7856 5.60489 19.9072 5.82094 20.0202 6.04115C20.0288 6.05777 20.0332 6.07023 20.0375 6.0827Z" fill="#348DFD"/>
<path d="M13.2005 12.6479C12.9442 12.8972 12.6836 13.1465 12.423 13.3916C12.297 13.5163 12.2926 13.5163 12.1971 13.3708C11.7584 12.7102 11.2545 12.1078 10.6681 11.5676C10.1251 11.0649 9.53004 10.6203 8.87848 10.2422C8.77423 10.1841 8.77423 10.1799 8.86111 10.101C9.1391 9.83505 9.42579 9.56498 9.70379 9.29907L13.2092 12.652L13.2005 12.6479Z" fill="url(#paint1_linear_2513_13299)"/>
<path d="M9.21761 11.9995C8.79193 11.6754 8.33584 11.397 7.845 11.1685C7.80156 11.1478 7.76247 11.1394 7.71903 11.181C7.61912 11.2807 7.51487 11.3804 7.41062 11.476C7.36284 11.5217 7.34113 11.5716 7.34113 11.638C7.34113 12.6934 7.34113 13.7445 7.34113 14.7999C7.34113 14.9038 7.34113 14.9038 7.44972 14.9038C8.00137 14.9038 8.55302 14.9038 9.10033 14.9038C9.64764 14.9038 10.2036 14.9038 10.7509 14.9038C10.8118 14.9038 10.8639 14.8913 10.9073 14.8497C11.0116 14.7459 11.1202 14.6462 11.2244 14.5423C11.2592 14.5132 11.2635 14.4841 11.2461 14.4426C11.2331 14.4135 11.2201 14.3844 11.207 14.3553C10.7162 13.4329 10.0603 12.6435 9.21327 11.9995H9.21761Z" fill="url(#paint2_linear_2513_13299)"/>
</g>
<defs>
<linearGradient id="paint0_linear_2513_13299" x1="1.17712" y1="20.9411" x2="11.0686" y2="10.6044" gradientUnits="userSpaceOnUse">
<stop stop-color="#348DFD"/>
<stop offset="1" stop-color="#348DFD" stop-opacity="0.5"/>
</linearGradient>
<linearGradient id="paint1_linear_2513_13299" x1="10.5334" y1="11.8502" x2="11.4091" y2="10.9304" gradientUnits="userSpaceOnUse">
<stop stop-color="#348DFD" stop-opacity="0.5"/>
<stop offset="1" stop-color="#348DFD" stop-opacity="0.5"/>
</linearGradient>
<linearGradient id="paint2_linear_2513_13299" x1="7.3585" y1="14.8871" x2="9.72462" y2="12.4178" gradientUnits="userSpaceOnUse">
<stop stop-color="#348DFD"/>
<stop offset="1" stop-color="#348DFD" stop-opacity="0.5"/>
</linearGradient>
</defs>
</svg>
