<svg width="40" height="40" viewBox="0 0 40 40" fill="none" xmlns="http://www.w3.org/2000/svg">
<circle opacity="0.2" cx="20" cy="19.9999" r="19.75" transform="rotate(180 20 19.9999)" fill="url(#paint0_linear_2500_13173)" stroke="white" stroke-width="0.5"/>
<g clip-path="url(#clip0_2500_13173)">
<path d="M27.6519 9.52386H17.8273C14.8293 9.52386 12.135 10.8405 10.2712 12.9402L11.7681 14.4676C11.8778 14.3428 11.9874 14.2224 12.1054 14.1019C13.6318 12.5443 15.6642 11.6881 17.8273 11.6881H26.9646V17.8839H29.0855V10.9868C29.0855 10.1779 28.4446 9.52386 27.6519 9.52386ZM26.8128 22.6383C26.5556 23.9592 25.9822 25.1898 25.1388 26.2439C24.9702 26.4548 24.7889 26.657 24.5991 26.8506C24.4811 26.9711 24.3588 27.083 24.2365 27.1905L25.7376 28.7223C27.479 27.1131 28.6723 24.8886 28.9928 22.3931H26.855C26.8423 22.4748 26.8297 22.5566 26.8128 22.6383Z" fill="white"/>
<path d="M25.7376 28.7223C23.9245 30.4046 21.5168 31.4286 18.8772 31.4286H9.04843C8.25994 31.4286 7.61902 30.7746 7.61902 29.9701V19.9406C7.61902 17.2471 8.62256 14.7903 10.2712 12.9402L11.7681 14.4676C10.4568 15.9822 9.73573 17.9054 9.73573 19.9406V29.2687H18.8772C20.7663 29.2687 22.5583 28.6104 24.0004 27.4014C24.0805 27.3325 24.1606 27.2637 24.2365 27.1905L25.7376 28.7223Z" fill="url(#paint1_linear_2500_13173)"/>
<path d="M31.9612 24.6347C31.4974 24.6347 31.08 24.3723 30.8734 23.9506C30.6457 23.4816 30.7342 22.9137 31.0926 22.535L32.113 21.4723H20.0031C19.3832 21.4723 18.8983 20.8871 18.8983 20.1385C18.8983 19.3898 19.3832 18.8047 20.0031 18.8047H32.113L31.0926 17.7419C30.7342 17.3676 30.6457 16.7996 30.8734 16.3263C31.08 15.9047 31.4974 15.6422 31.9612 15.6422C32.2901 15.6422 32.5937 15.7756 32.8256 16.0122L35.8152 19.1274C36.0555 19.3769 36.1947 19.7469 36.1947 20.1385C36.1947 20.53 36.0555 20.9 35.8194 21.1496L32.8298 24.2647C32.6021 24.5057 32.2943 24.6347 31.9654 24.6347H31.9612Z" fill="white"/>
</g>
<defs>
<linearGradient id="paint0_linear_2500_13173" x1="33.4514" y1="4.35568" x2="5.58494" y2="36.1332" gradientUnits="userSpaceOnUse">
<stop stop-color="white"/>
<stop offset="1" stop-color="#BAC2EE" stop-opacity="0"/>
<stop offset="1" stop-color="white" stop-opacity="0"/>
<stop offset="1" stop-color="white" stop-opacity="0"/>
</linearGradient>
<linearGradient id="paint1_linear_2500_13173" x1="8.03646" y1="31.0027" x2="18.2058" y2="21.0368" gradientUnits="userSpaceOnUse">
<stop stop-color="white"/>
<stop offset="1" stop-color="white" stop-opacity="0.5"/>
</linearGradient>
<clipPath id="clip0_2500_13173">
<rect width="28.5714" height="21.9048" fill="white" transform="translate(7.61902 9.52386)"/>
</clipPath>
</defs>
</svg>
