<svg width="56" height="45" viewBox="0 0 56 45" fill="none" xmlns="http://www.w3.org/2000/svg">
<mask id="mask0_2992_35936" style="mask-type:alpha" maskUnits="userSpaceOnUse" x="0" y="0" width="56" height="45">
<rect width="56" height="45" fill="#D9D9D9"/>
</mask>
<g mask="url(#mask0_2992_35936)">
<circle opacity="0.2" cx="34" cy="21.9999" r="19.75" transform="rotate(180 34 21.9999)" fill="url(#paint0_linear_2992_35936)" stroke="white" stroke-width="0.5"/>
<g clip-path="url(#clip0_2992_35936)">
<path d="M41.6519 11.5239H31.8273C28.8293 11.5239 26.135 12.8405 24.2712 14.9402L25.7681 16.4676C25.8778 16.3428 25.9874 16.2224 26.1054 16.1019C27.6318 14.5443 29.6642 13.6881 31.8273 13.6881H40.9646V19.8839H43.0855V12.9868C43.0855 12.1779 42.4446 11.5239 41.6519 11.5239ZM40.8128 24.6383C40.5556 25.9592 39.9822 27.1898 39.1388 28.2439C38.9702 28.4548 38.7889 28.657 38.5991 28.8506C38.4811 28.9711 38.3588 29.083 38.2365 29.1905L39.7376 30.7223C41.479 29.1131 42.6723 26.8886 42.9928 24.3931H40.855C40.8423 24.4748 40.8297 24.5566 40.8128 24.6383Z" fill="white"/>
<path d="M39.7377 30.7223C37.9246 32.4046 35.5169 33.4286 32.8774 33.4286H23.0486C22.2601 33.4286 21.6191 32.7746 21.6191 31.9701V21.9406C21.6191 19.2471 22.6227 16.7903 24.2714 14.9402L25.7682 16.4676C24.4569 17.9822 23.7359 19.9054 23.7359 21.9406V31.2687H32.8774C34.7664 31.2687 36.5584 30.6104 38.0005 29.4014C38.0806 29.3325 38.1607 29.2637 38.2366 29.1905L39.7377 30.7223Z" fill="url(#paint1_linear_2992_35936)"/>
<path d="M45.9613 26.6347C45.4975 26.6347 45.0801 26.3723 44.8735 25.9506C44.6458 25.4816 44.7343 24.9137 45.0927 24.535L46.1131 23.4723H34.0032C33.3833 23.4723 32.8984 22.8871 32.8984 22.1385C32.8984 21.3898 33.3833 20.8047 34.0032 20.8047H46.1131L45.0927 19.7419C44.7343 19.3676 44.6458 18.7996 44.8735 18.3263C45.0801 17.9047 45.4975 17.6422 45.9613 17.6422C46.2902 17.6422 46.5938 17.7756 46.8257 18.0122L49.8153 21.1274C50.0556 21.3769 50.1948 21.7469 50.1948 22.1385C50.1948 22.53 50.0556 22.9 49.8195 23.1496L46.83 26.2647C46.6023 26.5057 46.2945 26.6347 45.9656 26.6347H45.9613Z" fill="white"/>
</g>
</g>
<defs>
<linearGradient id="paint0_linear_2992_35936" x1="47.4514" y1="6.35568" x2="19.5849" y2="38.1332" gradientUnits="userSpaceOnUse">
<stop stop-color="white"/>
<stop offset="1" stop-color="#BAC2EE" stop-opacity="0"/>
<stop offset="1" stop-color="white" stop-opacity="0"/>
<stop offset="1" stop-color="white" stop-opacity="0"/>
</linearGradient>
<linearGradient id="paint1_linear_2992_35936" x1="22.0366" y1="33.0027" x2="32.206" y2="23.0368" gradientUnits="userSpaceOnUse">
<stop stop-color="white"/>
<stop offset="1" stop-color="white" stop-opacity="0.5"/>
</linearGradient>
<clipPath id="clip0_2992_35936">
<rect width="28.5714" height="21.9048" fill="white" transform="translate(21.6191 11.5239)"/>
</clipPath>
</defs>
</svg>
