<svg width="56" height="56" viewBox="0 0 56 56" fill="none" xmlns="http://www.w3.org/2000/svg">
<rect width="56" height="56" rx="13" fill="white" fill-opacity="0.28"/>
<rect x="3" y="3" width="50" height="50" rx="10" fill="white" fill-opacity="0.9"/>
<path d="M26.2528 12.2075V15.5726C21.8224 18.4748 18.0201 22.2642 15.1032 26.6836H11.7767C10.096 26.6836 8.7312 25.3188 8.7312 23.6381V12.2075C8.7312 10.5268 10.096 9.16199 11.7767 9.16199H23.2073C24.8881 9.16199 26.2528 10.5268 26.2528 12.2075Z" fill="#0870F3"/>
<path d="M26.253 19.3563V23.638C26.253 25.3187 24.8882 26.6835 23.2075 26.6835H18.8964C20.9794 23.8988 23.4591 21.4264 26.253 19.3563Z" fill="#0870F3"/>
<path d="M11.7766 29.7914C10.0959 29.7914 8.73108 31.1562 8.73108 32.8369V44.2675C8.73108 44.543 8.76598 44.8094 8.83578 45.061C9.23988 39.5762 10.792 34.4074 13.2552 29.7914H11.7766Z" fill="#2C37C7"/>
<path d="M23.2075 29.7886H16.8208C13.7533 34.9354 11.9513 40.9198 11.8411 47.3084H23.2075C24.8882 47.3084 26.253 45.9436 26.253 44.2629V32.8322C26.253 31.1515 24.8882 29.7867 23.2075 29.7867V29.7886Z" fill="#2C37C7"/>
<path d="M43.8332 9.16187H32.4025C30.7218 9.16187 29.3571 10.5266 29.3571 12.2073V13.7374C34.0502 11.254 39.3109 9.70741 44.8931 9.35106C44.5624 9.22983 44.2061 9.16187 43.8332 9.16187Z" fill="#52B6F3"/>
<path d="M29.6509 17.318V23.6606C29.6509 25.3413 31.0157 26.7061 32.6964 26.7061H44.1271C45.8078 26.7061 47.1726 25.3413 47.1726 23.6606V12.4026C40.7877 12.4908 34.8033 14.2725 29.6528 17.318H29.6509Z" fill="#52B6F3"/>
<path d="M46.9372 32.7516V44.2907C46.9372 45.9236 45.6147 47.2461 43.9817 47.2461H39.9168V35.4003C39.9168 35.0862 39.8948 34.8401 39.8507 34.7281L39.8948 34.6821C40.0068 34.7501 40.1648 34.7942 40.4789 34.7942H44.1342V31.633H32.2259V34.7942H35.9033C36.2174 34.7942 36.3754 34.7501 36.4874 34.6821L36.5315 34.7281C36.4874 34.8401 36.4415 35.0862 36.4415 35.4003V47.2461H32.259C30.6261 47.2461 29.3035 45.9236 29.3035 44.2907V32.7516C29.3035 31.1187 30.6261 29.7961 32.259 29.7961H43.9817C45.6147 29.7961 46.9372 31.1187 46.9372 32.7516Z" fill="#F5BE06"/>
</svg>
