<svg width="140" height="139" viewBox="0 0 140 139" fill="none" xmlns="http://www.w3.org/2000/svg">
<path d="M63.7413 11.0791V23.3208C47.6239 33.8787 33.7918 47.664 23.1805 63.7413H11.0791C4.96486 63.7413 0 58.7765 0 52.6623V11.0791C0 4.96486 4.96486 0 11.0791 0H52.6623C58.7765 0 63.7413 4.96486 63.7413 11.0791Z" fill="#0870F3"/>
<path d="M63.7414 37.0862V52.6623C63.7414 58.7765 58.7766 63.7414 52.6624 63.7414H36.9793C44.5569 53.6112 53.5778 44.617 63.7414 37.0862Z" fill="#0870F3"/>
<path d="M11.0791 75.0345C4.96486 75.0345 0 79.9994 0 86.1136V127.697C0 128.699 0.126961 129.668 0.380884 130.584C1.85096 110.631 7.4974 91.8269 16.4582 75.0345H11.0791Z" fill="#2C37C7"/>
<path d="M52.6623 75.0341H29.4284C18.2691 93.7575 11.7139 115.528 11.313 138.769H52.6623C58.7765 138.769 63.7414 133.804 63.7414 127.69V86.1064C63.7414 79.9922 58.7765 75.0274 52.6623 75.0274V75.0341Z" fill="#2C37C7"/>
<path d="M127.697 0H86.1134C79.9992 0 75.0343 4.96486 75.0343 11.0791V16.6453C92.1073 7.611 111.245 1.98461 131.552 0.688264C130.349 0.24724 129.053 0 127.697 0Z" fill="#52B6F3"/>
<path d="M76.1042 29.6724V52.746C76.1042 58.8602 81.0691 63.825 87.1833 63.825H128.766C134.881 63.825 139.846 58.8602 139.846 52.746V11.7909C116.618 12.1116 94.8477 18.5934 76.1109 29.6724H76.1042Z" fill="#52B6F3"/>
<path d="M138.989 85.8193V127.797C138.989 133.737 134.178 138.548 128.238 138.548H113.45V95.455C113.45 94.3123 113.37 93.4169 113.209 93.0093L113.37 92.8422C113.777 93.0895 114.352 93.2498 115.495 93.2498H128.792V81.7498H85.4717V93.2498H98.8495C99.9921 93.2498 100.567 93.0895 100.974 92.8422L101.135 93.0093C100.974 93.4169 100.807 94.3123 100.807 95.455V138.548H85.592C79.6516 138.548 74.8404 133.737 74.8404 127.797V85.8193C74.8404 79.8788 79.6516 75.0676 85.592 75.0676H128.238C134.178 75.0676 138.989 79.8788 138.989 85.8193Z" fill="#F5BE06"/>
</svg>
