<svg width="56" height="45" viewBox="0 0 56 45" fill="none" xmlns="http://www.w3.org/2000/svg">
<mask id="mask0_2953_32369" style="mask-type:alpha" maskUnits="userSpaceOnUse" x="0" y="0" width="56" height="45">
<rect width="56" height="45" fill="#D9D9D9"/>
</mask>
<g mask="url(#mask0_2953_32369)">
<path d="M36.8085 15.7655C36.8078 15.8752 36.8366 15.9152 36.952 15.913C37.3085 15.9061 37.6651 15.9105 38.0217 15.9103C38.1812 15.9103 38.1817 15.9101 38.1819 15.7497C38.1821 14.9749 38.1761 14.2001 38.1841 13.4253C38.1928 12.5767 37.528 11.9929 36.7717 12.0001C35.2269 12.0143 33.6819 12.0056 32.1369 12.0058C30.1984 12.0063 28.2596 12.0038 26.3211 12.0076C25.6831 12.0087 25.1284 12.4957 25.0225 13.1252C24.9909 13.3134 25.0018 13.5023 25.0018 13.6907C25 16.4785 25.0005 19.2665 25.0005 22.0542H25.0036C25.0036 23.6445 25.0036 25.2348 25.0036 26.8254C25.0034 28.1452 25.0009 29.465 25.0027 30.7846C25.0036 31.375 25.4012 31.8968 25.9596 32.0694C26.182 32.1382 26.4073 32.1246 26.6331 32.1246C30.0313 32.1257 33.4294 32.1271 36.8274 32.1262C37.5628 32.1259 38.1714 31.5387 38.1788 30.8055C38.1892 29.7564 38.1812 28.7071 38.183 27.658C38.1832 27.5766 38.1562 27.549 38.0729 27.5499C37.6905 27.5537 37.3081 27.5546 36.9257 27.5494C36.8288 27.5481 36.808 27.5837 36.8091 27.672C36.8136 27.9797 36.8129 29.8002 36.8098 30.1076C36.8074 30.3577 36.7091 30.5537 36.4706 30.6604C36.3704 30.7054 36.2623 30.7107 36.1542 30.7105C34.9992 30.7094 33.8442 30.7071 32.6891 30.7074C30.784 30.7074 28.8789 30.71 26.9738 30.7092C26.5985 30.7092 26.3743 30.4771 26.3743 30.1005C26.3743 28.9551 26.3746 26.2968 26.3746 25.1512C26.3746 21.7185 26.3743 18.4414 26.3746 15.0085V13.7196C26.3746 13.5744 26.4924 13.4567 26.638 13.4567H36.5455C36.6846 13.4567 36.7973 13.5688 36.798 13.7076L36.8082 15.7655H36.8085Z" fill="white"/>
<path d="M36.2354 17.0417H33.5617C33.162 17.0417 32.8379 17.3652 32.8379 17.7643V20.5516C32.8379 20.9506 33.162 21.2741 33.5617 21.2741H36.2354C36.6352 21.2741 36.9592 20.9506 36.9592 20.5516V17.7643C36.9592 17.3652 36.6352 17.0417 36.2354 17.0417Z" fill="white"/>
<path d="M41.2764 17.0417H38.6027C38.203 17.0417 37.8789 17.3652 37.8789 17.7643V20.5516C37.8789 20.9506 38.203 21.2741 38.6027 21.2741H41.2764C41.6762 21.2741 42.0002 20.9506 42.0002 20.5516V17.7643C42.0002 17.3652 41.6762 17.0417 41.2764 17.0417Z" fill="white"/>
<path d="M36.2354 22.149H33.5617C33.162 22.149 32.8379 22.4725 32.8379 22.8715V25.6589C32.8379 26.0579 33.162 26.3814 33.5617 26.3814H36.2354C36.6352 26.3814 36.9592 26.0579 36.9592 25.6589V22.8715C36.9592 22.4725 36.6352 22.149 36.2354 22.149Z" fill="white"/>
<path d="M41.2764 22.149H38.6027C38.203 22.149 37.8789 22.4725 37.8789 22.8715V25.6589C37.8789 26.0579 38.203 26.3814 38.6027 26.3814H41.2764C41.6762 26.3814 42.0002 26.0579 42.0002 25.6589V22.8715C42.0002 22.4725 41.6762 22.149 41.2764 22.149Z" fill="white"/>
</g>
</svg>
