<svg width="19" height="18" viewBox="0 0 19 18" fill="none" xmlns="http://www.w3.org/2000/svg">
<path d="M7.20796 12.8333C5.28479 12.8333 3.65716 12.2304 2.32506 11.0245C0.992955 9.81858 0.326904 8.34514 0.326904 6.60417C0.326904 4.86319 0.992955 3.38976 2.32506 2.18385C3.65716 0.977952 5.28479 0.375 7.20796 0.375C9.13113 0.375 10.7588 0.977952 12.0909 2.18385C13.423 3.38976 14.089 4.86319 14.089 6.60417C14.089 7.30695 13.9655 7.96979 13.7185 8.59271C13.4715 9.21563 13.1363 9.76667 12.7128 10.2458L18.6411 15.6125C18.8352 15.7882 18.9322 16.0118 18.9322 16.2833C18.9322 16.5549 18.8352 16.7785 18.6411 16.9542C18.447 17.1299 18.2 17.2177 17.9001 17.2177C17.6001 17.2177 17.3531 17.1299 17.159 16.9542L11.2307 11.5875C10.7014 11.9708 10.0927 12.2743 9.40461 12.4979C8.7165 12.7215 7.98429 12.8333 7.20796 12.8333ZM7.20796 10.9167C8.53124 10.9167 9.65603 10.4974 10.5823 9.65886C11.5086 8.82031 11.9718 7.80208 11.9718 6.60417C11.9718 5.40625 11.5086 4.38802 10.5823 3.54948C9.65603 2.71094 8.53124 2.29167 7.20796 2.29167C5.88468 2.29167 4.75989 2.71094 3.8336 3.54948C2.9073 4.38802 2.44415 5.40625 2.44415 6.60417C2.44415 7.80208 2.9073 8.82031 3.8336 9.65886C4.75989 10.4974 5.88468 10.9167 7.20796 10.9167Z" fill="#949494"/>
</svg>
