<svg width="65" height="52" viewBox="0 0 65 52" fill="none" xmlns="http://www.w3.org/2000/svg">
<g filter="url(#filter0_d_2311_4290)">
<path d="M2 30C2 13.4315 15.4315 0 32 0H58C60.7614 0 63 2.23858 63 5V18C63 34.5685 49.5685 48 33 48H7C4.23858 48 2 45.7614 2 43V30Z" fill="#348DFD"/>
</g>
<g clip-path="url(#clip0_2311_4290)">
<path d="M36.5589 36.932C35.2083 37.0227 34.0593 35.9165 33.7567 34.9066C33.2467 33.2047 32.6302 31.5311 32.0697 29.8405C31.7391 28.8421 31.4028 27.8436 31.1058 26.8338C30.9713 26.3742 30.6742 26.187 30.2651 26.0509C28.0737 25.319 25.888 24.5759 23.7022 23.8327C23.2595 23.6852 22.8167 23.5263 22.374 23.3788C20.5581 22.7945 19.8295 20.6444 20.8552 19.0219C21.2363 18.4205 21.7687 18.0574 22.374 17.8418C24.0161 17.2518 25.6806 16.7299 27.334 16.1739C28.6342 15.7314 29.9288 15.2719 31.2291 14.8294C32.8544 14.2848 34.4853 13.7572 36.105 13.2126C37.2707 12.8211 38.4308 12.4013 39.6078 12.0269C40.6894 11.6808 41.7263 11.1475 42.8584 11.0171C44.4669 10.8298 45.8624 12.0666 46.0193 13.7004C46.0866 14.3529 45.8343 14.9712 45.6382 15.5783C44.7415 18.3354 43.8055 21.0755 42.8976 23.827C42.2251 25.858 41.5805 27.9003 40.9136 29.9313C40.3644 31.6106 39.7871 33.2785 39.2323 34.952C38.8007 36.2569 37.848 36.8185 36.5589 36.9263V36.932ZM40.9192 14.3756L40.8744 14.3018C39.647 14.7046 38.4252 15.1074 37.2034 15.5159C35.892 15.9584 34.5805 16.4236 33.2691 16.8661C31.3075 17.5241 29.3348 18.1709 27.3732 18.829C26.0617 19.2715 24.7503 19.7367 23.4388 20.1792C23.2203 20.2529 22.9288 20.2473 22.9288 20.5649C22.9288 20.86 23.181 20.9791 23.4276 21.0585C24.1954 21.3195 24.9633 21.5748 25.7311 21.8357C27.5357 22.4428 29.3404 23.0384 31.1338 23.6738C31.4645 23.793 31.6606 23.7646 31.9072 23.5093C34.362 21.0018 36.8336 18.5113 39.2995 16.0151C39.8376 15.4705 40.3812 14.9202 40.9192 14.3699V14.3756ZM42.7519 16.2307C42.7519 16.2307 42.707 16.208 42.6902 16.191C41.5301 17.3653 40.3756 18.5396 39.2155 19.714C37.3716 21.5861 35.5221 23.4526 33.6782 25.3247C33.5157 25.4892 33.3307 25.6311 33.454 25.9317C33.639 26.3856 33.7791 26.8508 33.9304 27.316C34.3676 28.6492 34.7991 29.9824 35.2363 31.3155C35.5109 32.1552 35.7743 32.9948 36.0657 33.8288C36.1442 34.0557 36.2227 34.3507 36.5365 34.3507C36.8896 34.3507 36.9176 34.0103 36.9961 33.772C37.1866 33.2217 37.3323 32.6601 37.5173 32.1098C38.0777 30.4192 38.6494 28.7343 39.2042 27.0437C39.86 25.0411 40.5045 23.0328 41.1602 21.0301C41.687 19.4303 42.2251 17.8362 42.7575 16.2363L42.7519 16.2307Z" fill="white"/>
<path d="M23.9825 27.7414C23.9769 27.9684 23.848 28.235 23.6295 28.4563C22.4637 29.6419 21.298 30.8333 20.1155 32.0076C19.6223 32.4955 18.7928 32.4672 18.3388 31.9906C17.9297 31.5595 17.9129 30.6518 18.3444 30.2036C19.5046 29.0066 20.6703 27.8152 21.8584 26.6522C22.2564 26.2608 22.7832 26.221 23.2932 26.4536C23.7976 26.6806 23.9545 27.1344 23.9769 27.7414H23.9825Z" fill="url(#paint0_linear_2311_4290)"/>
<path d="M26.1517 29.8122C26.6505 29.8348 27.0876 29.9994 27.295 30.4929C27.5248 31.0489 27.4687 31.5822 27.0428 32.0247C26.3142 32.7849 25.5688 33.5337 24.8234 34.2769C24.2742 34.8272 23.5232 34.8215 22.9907 34.2769C22.4359 33.7209 22.4471 33.0856 23.03 32.4842C23.7754 31.7183 24.532 30.9581 25.283 30.1979C25.524 29.954 25.8042 29.7951 26.1517 29.8065V29.8122Z" fill="url(#paint1_linear_2311_4290)"/>
<path d="M28.5837 36.9944C27.9224 37.0171 27.5581 36.7278 27.3283 36.2513C27.1041 35.7861 27.1545 35.3095 27.4852 34.9294C27.8943 34.4586 28.3427 34.016 28.8023 33.5849C29.2338 33.1821 30.1137 33.2332 30.5172 33.653C30.932 34.0785 30.988 34.9067 30.5957 35.3436C30.1698 35.8201 29.7046 36.2683 29.245 36.7165C29.032 36.9207 28.7742 37.0228 28.5781 36.9888L28.5837 36.9944Z" fill="url(#paint2_linear_2311_4290)"/>
</g>
<defs>
<filter id="filter0_d_2311_4290" x="0" y="0" width="65" height="52" filterUnits="userSpaceOnUse" color-interpolation-filters="sRGB">
<feFlood flood-opacity="0" result="BackgroundImageFix"/>
<feColorMatrix in="SourceAlpha" type="matrix" values="0 0 0 0 0 0 0 0 0 0 0 0 0 0 0 0 0 0 127 0" result="hardAlpha"/>
<feOffset dy="2"/>
<feGaussianBlur stdDeviation="1"/>
<feComposite in2="hardAlpha" operator="out"/>
<feColorMatrix type="matrix" values="0 0 0 0 0 0 0 0 0 0 0 0 0 0 0 0 0 0 0.15 0"/>
<feBlend mode="normal" in2="BackgroundImageFix" result="effect1_dropShadow_2311_4290"/>
<feBlend mode="normal" in="SourceGraphic" in2="effect1_dropShadow_2311_4290" result="shape"/>
</filter>
<linearGradient id="paint0_linear_2311_4290" x1="18.35" y1="31.9906" x2="23.6767" y2="26.7284" gradientUnits="userSpaceOnUse">
<stop stop-color="white"/>
<stop offset="1" stop-color="white" stop-opacity="0.5"/>
</linearGradient>
<linearGradient id="paint1_linear_2311_4290" x1="23.0131" y1="34.3053" x2="27.1429" y2="30.2255" gradientUnits="userSpaceOnUse">
<stop stop-color="white"/>
<stop offset="1" stop-color="white" stop-opacity="0.5"/>
</linearGradient>
<linearGradient id="paint2_linear_2311_4290" x1="27.5693" y1="36.62" x2="30.5474" y2="33.6836" gradientUnits="userSpaceOnUse">
<stop stop-color="white"/>
<stop offset="1" stop-color="white" stop-opacity="0.5"/>
</linearGradient>
<clipPath id="clip0_2311_4290">
<rect width="28" height="26" fill="white" transform="translate(18.0308 11)"/>
</clipPath>
</defs>
</svg>
