<svg width="56" height="45" viewBox="0 0 56 45" fill="none" xmlns="http://www.w3.org/2000/svg">
<mask id="mask0_4673_6117" style="mask-type:alpha" maskUnits="userSpaceOnUse" x="0" y="0" width="56" height="45">
<rect width="56" height="45" fill="#D9D9D9"/>
</mask>
<g mask="url(#mask0_4673_6117)">
<path d="M39.8381 13.7996L38.8437 14.8497C37.9192 14.2394 36.8906 13.8131 35.7857 13.5851C35.2615 13.4774 34.705 13.4226 34.1333 13.4226C33.9385 13.4226 33.7375 13.4289 33.5364 13.4415C31.8553 13.5483 30.316 14.1083 28.9616 15.1046C28.6143 15.3604 28.2875 15.6396 27.9905 15.9322C27.9375 15.9842 27.8693 16.0103 27.8011 16.0103C27.7329 16.0103 27.6628 15.9833 27.6108 15.9313L26.987 15.3075C26.8883 15.2087 26.8811 15.0517 26.9708 14.9449C26.9825 14.9296 26.9969 14.9152 27.0112 14.9009C27.0121 14.9009 27.0184 14.8937 27.0193 14.8937C28.7965 13.1453 30.9676 12.1759 33.4736 12.0135C33.6531 12.0045 33.8326 12 34.0085 12C34.977 12 35.9482 12.1373 36.9785 12.4192C37.9667 12.7153 38.8814 13.1489 39.7026 13.7107C39.7161 13.7197 39.7322 13.7296 39.7484 13.7404C39.778 13.7592 39.8085 13.7781 39.8381 13.7996Z" fill="white"/>
<path d="M44.9998 23.2005C45.0016 23.9536 44.517 24.5792 43.7917 24.7569C43.7917 24.7569 43.7908 24.7569 43.7899 24.7578C43.5081 25.8241 43.0297 26.85 42.3673 27.8077C42.0298 28.2968 41.6484 28.7564 41.2346 29.1729C41.1843 29.224 41.1152 29.2527 41.0434 29.2527C40.9716 29.2527 40.9034 29.224 40.8531 29.1737L40.2276 28.5482C40.1225 28.4431 40.1225 28.2726 40.2267 28.1676C41.0668 27.3221 41.7274 26.2863 42.1887 25.089C42.2623 24.8987 42.3287 24.6941 42.388 24.4804C41.9302 24.1241 41.6977 23.5811 41.7615 23.013C41.827 22.4349 42.1842 21.9502 42.7227 21.7061C42.6312 19.9487 42.0783 18.3654 41.0775 16.9922C41.0614 16.9706 41.0479 16.9491 41.0362 16.9275L42.0209 15.8882C42.0532 15.9115 42.0837 15.9429 42.1115 15.9806C42.5899 16.6251 42.9965 17.3225 43.3196 18.0531C43.6643 18.8304 43.9084 19.6768 44.0448 20.5689C44.0978 20.9181 44.1499 21.3318 44.1436 21.7627C44.6947 22.058 44.9989 22.5669 44.9998 23.2005Z" fill="white"/>
<path d="M34.0992 32.1617C33.9161 32.1617 33.7294 32.1564 33.5454 32.1456C31.4209 32.0262 29.4876 31.2884 27.8011 29.9547C26.47 28.9027 25.4495 27.5438 24.7674 25.9175C24.4263 25.1034 24.201 24.2534 24.0969 23.3891C23.9874 22.7159 23.9704 22.0041 24.0475 21.2735C24.2423 18.8044 25.2323 16.6673 26.9879 14.926C27.04 14.874 27.1091 14.848 27.1773 14.848C27.2455 14.848 27.3155 14.874 27.3676 14.9269L27.9914 15.5507C28.0425 15.6019 28.0704 15.6701 28.0704 15.7419C28.0704 15.8137 28.0407 15.8828 27.9896 15.9331C27.1477 16.7615 26.4925 17.7551 26.041 18.886C25.7367 19.649 25.5456 20.4532 25.4729 21.2762C25.4271 21.7887 25.4298 22.3318 25.48 22.8882C25.5617 23.7948 25.7744 24.6519 26.1137 25.4364C26.9987 27.4774 28.4563 28.9871 30.4462 29.9241C31.2926 30.3227 32.2 30.5731 33.1424 30.6682C33.4718 30.7014 33.8021 30.7176 34.1217 30.7176C35.4958 30.7176 36.7964 30.407 37.9847 29.7949C38.8365 29.3569 39.5904 28.8085 40.2259 28.1676C40.2762 28.1165 40.3453 28.0878 40.4162 28.0878C40.488 28.0878 40.5562 28.1165 40.6065 28.1667L41.2321 28.7923C41.3371 28.8973 41.3371 29.067 41.2321 29.172C40.7986 29.6091 40.3157 30.013 39.7969 30.3711C38.6462 31.1664 37.3412 31.7103 35.9195 31.9858C35.3235 32.1025 34.7096 32.1617 34.0965 32.1617H34.0992Z" fill="url(#paint0_linear_4673_6117)"/>
<path d="M37.1798 16.6072L36.3011 17.5334C35.872 17.3225 35.4251 17.1771 34.9682 17.1017C34.6774 17.0532 34.3821 17.029 34.0913 17.029C33.9091 17.029 33.7251 17.0389 33.5438 17.0577C32.8778 17.125 32.2298 17.3261 31.615 17.6546C31.7263 18.1788 31.5853 18.6329 31.2066 18.9776C31.1572 19.0225 31.1025 19.0664 31.0432 19.1086C31.0037 19.1374 30.9571 19.1517 30.9104 19.1517C30.8511 19.1517 30.7928 19.1284 30.7479 19.0844L29.1467 17.4832C29.0695 17.4051 29.0569 17.2839 29.118 17.1933C29.3011 16.9195 29.582 16.7176 29.9087 16.6251C30.0299 16.591 30.152 16.5739 30.2722 16.5739C30.4625 16.5739 30.6519 16.617 30.8368 16.7005C31.5988 16.249 32.4192 15.9645 33.279 15.8532C33.5698 15.8164 33.84 15.7985 34.1048 15.7985C34.2484 15.7985 34.392 15.8038 34.5302 15.8146C35.2572 15.873 35.9465 16.0417 36.5793 16.3155C36.7516 16.3891 36.9635 16.4851 37.1798 16.6072Z" fill="white"/>
<path d="M40.4288 22.1657C40.3947 23.6807 39.9064 25.0253 38.9792 26.1616C38.8536 26.3159 38.7217 26.4622 38.5879 26.5978C38.5448 26.6409 38.4865 26.666 38.4255 26.666H38.4246C38.3635 26.666 38.3052 26.6418 38.2621 26.5987L37.7164 26.053C37.6275 25.9632 37.6266 25.8187 37.7164 25.7289C38.5044 24.9364 38.9846 23.9697 39.1417 22.8586C39.3015 21.7295 39.1013 20.6461 38.5475 19.6408C38.5377 19.622 38.5269 19.604 38.517 19.587L39.3858 18.6706C39.6892 19.1346 39.928 19.6283 40.0958 20.1363C40.252 20.6093 40.3507 21.0859 40.3902 21.5526C40.3938 21.602 40.3983 21.6505 40.4037 21.6989C40.418 21.8488 40.4324 22.0041 40.4288 22.1657Z" fill="white"/>
<path d="M34.5713 29.2384C34.0588 29.2384 33.5696 28.9179 33.3453 28.4369C33.0446 28.3956 32.6972 28.3417 32.3651 28.2403C30.342 27.6228 28.9248 26.3177 28.152 24.3629C27.9169 23.7669 27.7867 23.1269 27.7553 22.4062C27.7014 21.1595 28.0084 19.9631 28.669 18.851C28.7381 18.7343 28.8144 18.6248 28.8889 18.5189C28.914 18.483 28.9383 18.448 28.9625 18.4121C28.8189 17.9965 28.8736 17.554 29.1178 17.1923C29.1564 17.1358 29.2174 17.099 29.2856 17.0927C29.2928 17.0927 29.3 17.0918 29.3072 17.0918C29.3673 17.0918 29.4265 17.116 29.4696 17.1591L31.0709 18.7603C31.1184 18.8079 31.1436 18.8752 31.1373 18.9425C31.131 19.0099 31.096 19.0718 31.0403 19.1104C30.8088 19.272 30.5557 19.3536 30.2882 19.3536C30.1437 19.3536 29.9947 19.3294 29.8448 19.2809C29.4247 19.9029 29.151 20.5967 29.0325 21.3444C28.9688 21.751 28.958 22.1728 29.0011 22.6324C29.0666 23.3352 29.2614 23.9823 29.58 24.5567C30.2658 25.7954 31.297 26.6346 32.6452 27.051C32.8776 27.1228 33.1164 27.1641 33.3677 27.2045C33.6181 26.7396 34.0794 26.4551 34.5928 26.4551C35.0165 26.4551 35.4096 26.6498 35.6807 26.9927C36.4472 26.745 37.1078 26.3357 37.7002 25.7433L37.7154 25.728C37.7603 25.6832 37.8187 25.6607 37.877 25.6607C37.9353 25.6607 37.9946 25.6832 38.0394 25.728L38.5852 26.2738C38.674 26.3626 38.6749 26.5071 38.587 26.5969C37.8626 27.3347 36.9687 27.8732 35.9293 28.1972C35.7821 28.76 35.2705 29.1809 34.6727 29.233C34.6386 29.2357 34.6045 29.2375 34.5704 29.2375L34.5713 29.2384Z" fill="url(#paint1_linear_4673_6117)"/>
<path d="M33.9376 24.0506C33.0024 24.0506 32.1273 23.1288 32.1021 22.1172C32.0887 21.5769 32.3131 21.042 32.717 20.6506C32.769 20.6004 32.8363 20.5743 32.9045 20.5743C32.9728 20.5743 33.0428 20.6004 33.0948 20.6533L35.5048 23.0633C35.6089 23.1674 35.6098 23.3352 35.5083 23.4402C35.1134 23.8504 34.6171 24.0497 33.9924 24.0497C33.9924 24.0497 33.952 24.0497 33.9385 24.0497L33.9376 24.0506Z" fill="url(#paint2_linear_4673_6117)"/>
<path d="M35.3144 23.5237C35.2453 23.5237 35.1762 23.4977 35.1242 23.4447L32.7142 21.0348C32.6631 20.9836 32.6353 20.9145 32.6353 20.8427C32.6353 20.7709 32.6649 20.7018 32.7169 20.6515C33.0122 20.3643 33.3811 20.1776 33.7832 20.1121C33.8891 20.095 33.9959 20.0861 34.1001 20.0861C34.3577 20.0861 34.6045 20.1381 34.8352 20.2396C35.0604 19.9999 35.2875 19.7638 35.5146 19.5269C35.6744 19.3608 35.8341 19.1939 35.993 19.027C36.8995 18.0756 37.8043 17.1241 38.709 16.1709C39.0186 15.846 39.3274 15.5202 39.6362 15.1944C39.8677 14.9503 40.0993 14.7061 40.3309 14.462C40.4996 14.2852 40.6827 14.1954 40.8766 14.1954C40.9672 14.1954 41.0597 14.2152 41.1521 14.2547C41.3631 14.3453 41.5309 14.5509 41.5794 14.7797C41.6269 15.0059 41.5596 15.2303 41.3909 15.4107L41.2042 15.6118C41.0399 15.7877 40.8766 15.9636 40.7114 16.1377C39.9117 16.9796 39.1111 17.8215 38.3096 18.6617C37.7881 19.2092 37.2657 19.7567 36.7433 20.3033L36.1097 20.9675C36.0325 21.0491 35.9526 21.1326 35.8718 21.2152C36.0127 21.4997 36.081 21.7869 36.0756 22.0697C36.0684 22.5588 35.9095 22.9861 35.6062 23.3397C35.5711 23.381 35.5379 23.416 35.5047 23.4483C35.4527 23.4995 35.3845 23.5246 35.3171 23.5246L35.3144 23.5237Z" fill="white"/>
</g>
<defs>
<linearGradient id="paint0_linear_4673_6117" x1="26.9556" y1="29.2043" x2="34.3012" y2="21.8596" gradientUnits="userSpaceOnUse">
<stop stop-color="white"/>
<stop offset="1" stop-color="white" stop-opacity="0.2"/>
</linearGradient>
<linearGradient id="paint1_linear_4673_6117" x1="29.3628" y1="26.3824" x2="34.0283" y2="21.7169" gradientUnits="userSpaceOnUse">
<stop stop-color="white"/>
<stop offset="1" stop-color="white" stop-opacity="0.2"/>
</linearGradient>
<linearGradient id="paint2_linear_4673_6117" x1="32.6864" y1="23.4725" x2="34.3002" y2="21.8587" gradientUnits="userSpaceOnUse">
<stop stop-color="white"/>
<stop offset="1" stop-color="white" stop-opacity="0.2"/>
</linearGradient>
</defs>
</svg>
