<svg width="56" height="45" viewBox="0 0 56 45" fill="none" xmlns="http://www.w3.org/2000/svg">
<mask id="mask0_4673_6107" style="mask-type:alpha" maskUnits="userSpaceOnUse" x="0" y="0" width="56" height="45">
<rect width="56" height="45" fill="#D9D9D9"/>
</mask>
<g mask="url(#mask0_4673_6107)">
<circle cx="33.5" cy="22.5" r="22.5" fill="white" fill-opacity="0.3"/>
<circle cx="33.5" cy="22.5" r="20.5" fill="white"/>
<path d="M33.1338 32.2307C32.9501 32.2307 32.7628 32.2253 32.5781 32.2145C30.4463 32.0948 28.5064 31.3544 26.8141 30.0161C25.4785 28.9606 24.4545 27.597 23.77 25.9651C23.4278 25.1482 23.2017 24.2953 23.0972 23.428C22.9874 22.7526 22.9702 22.0384 23.0477 21.3052C23.2431 18.8276 24.2365 16.6832 25.9982 14.936C26.0504 14.8838 26.1197 14.8577 26.1882 14.8577C26.2566 14.8577 26.3269 14.8838 26.3791 14.9369L27.0051 15.5629C27.0564 15.6142 27.0843 15.6826 27.0843 15.7547C27.0843 15.8267 27.0546 15.8961 27.0033 15.9465C26.1585 16.7778 25.501 17.7748 25.048 18.9096C24.7427 19.6751 24.5508 20.4821 24.4779 21.308C24.432 21.8222 24.4347 22.3671 24.4851 22.9255C24.5671 23.8351 24.7805 24.6952 25.1209 25.4824C26.009 27.5304 27.4716 29.0452 29.4683 29.9855C30.3176 30.3854 31.2281 30.6366 32.1737 30.7321C32.5043 30.7654 32.8357 30.7816 33.1563 30.7816C34.5352 30.7816 35.8402 30.47 37.0326 29.8558C37.8873 29.4163 38.6438 28.866 39.2815 28.223C39.3319 28.1716 39.4013 28.1428 39.4724 28.1428C39.5445 28.1428 39.6129 28.1716 39.6634 28.2221L40.2911 28.8498C40.3965 28.9552 40.3965 29.1254 40.2911 29.2308C39.8561 29.6694 39.3716 30.0746 38.851 30.434C37.6964 31.232 36.3869 31.7777 34.9603 32.0542C34.3623 32.1713 33.7462 32.2307 33.1311 32.2307H33.1338Z" fill="url(#paint0_linear_4673_6107)"/>
<path d="M44.0719 23.2389C44.0737 23.9945 43.5873 24.6223 42.8596 24.8006C42.8596 24.8006 42.8587 24.8006 42.8578 24.8015C42.575 25.8714 42.095 26.9008 41.4303 27.8618C41.0917 28.3526 40.7089 28.8138 40.2937 29.2317C40.2433 29.283 40.174 29.3118 40.1019 29.3118C40.0299 29.3118 39.9614 29.283 39.911 29.2326L39.2832 28.6048C39.1779 28.4994 39.1779 28.3283 39.2823 28.223C40.1253 27.3746 40.7882 26.3352 41.2511 25.1338C41.325 24.9429 41.3916 24.7375 41.4511 24.5232C40.9917 24.1656 40.7585 23.6208 40.8224 23.0507C40.8882 22.4707 41.2466 21.9843 41.787 21.7393C41.6951 19.9759 41.1403 18.3872 40.1361 17.0093C40.1199 16.9876 40.1064 16.966 40.0947 16.9444L41.0827 15.9015C41.1151 15.9249 41.1457 15.9564 41.1737 15.9943C41.6537 16.6409 42.0617 17.3407 42.3859 18.0738C42.7317 18.8537 42.9767 19.703 43.1136 20.5983C43.1667 20.9486 43.219 21.3638 43.2127 21.7961C43.7657 22.0924 44.071 22.603 44.0719 23.2389Z" fill="#2032BB"/>
<path d="M38.8922 13.8058L37.8943 14.8595C36.9667 14.2471 35.9345 13.8193 34.8259 13.5905C34.2999 13.4824 33.7415 13.4275 33.1678 13.4275C32.9724 13.4275 32.7706 13.4338 32.5689 13.4464C30.882 13.5536 29.3374 14.1156 27.9784 15.1153C27.6299 15.3719 27.302 15.652 27.0039 15.9456C26.9508 15.9979 26.8823 16.024 26.8139 16.024C26.7454 16.024 26.6752 15.997 26.623 15.9447L25.997 15.3188C25.898 15.2197 25.8908 15.0621 25.9808 14.955C25.9925 14.9396 26.0069 14.9252 26.0213 14.9108C26.0222 14.9108 26.0285 14.9036 26.0294 14.9036C27.8127 13.1492 29.9913 12.1765 32.5059 12.0135C32.686 12.0045 32.8661 12 33.0426 12C34.0144 12 34.9889 12.1378 36.0228 12.4206C37.0144 12.7178 37.9321 13.1528 38.7562 13.7166C38.7697 13.7256 38.7859 13.7355 38.8021 13.7463C38.8319 13.7652 38.8625 13.7841 38.8922 13.8058Z" fill="#2032BB"/>
<path d="M33.6074 29.2974C33.0931 29.2974 32.6023 28.9759 32.3771 28.4932C32.0754 28.4517 31.7269 28.3977 31.3936 28.2959C29.3636 27.6763 27.9415 26.3668 27.1661 24.4052C26.9301 23.8072 26.7995 23.1651 26.768 22.4419C26.714 21.1909 27.022 19.9904 27.6849 18.8745C27.7542 18.7574 27.8308 18.6475 27.9055 18.5412C27.9307 18.5052 27.955 18.4701 27.9794 18.4341C27.8353 18.0171 27.8902 17.5731 28.1352 17.2101C28.1739 17.1534 28.2351 17.1165 28.3036 17.1102C28.3108 17.1102 28.318 17.1093 28.3252 17.1093C28.3855 17.1093 28.445 17.1336 28.4882 17.1768L30.0949 18.7835C30.1427 18.8313 30.1679 18.8988 30.1616 18.9663C30.1553 19.0339 30.1201 19.096 30.0643 19.1348C29.8319 19.2969 29.578 19.3788 29.3096 19.3788C29.1646 19.3788 29.0151 19.3545 28.8647 19.3059C28.4432 19.93 28.1685 20.6262 28.0496 21.3764C27.9857 21.7844 27.9749 22.2077 28.0181 22.6688C28.0838 23.374 28.2793 24.0234 28.599 24.5998C29.2871 25.8426 30.3219 26.6847 31.6746 27.1026C31.9079 27.1747 32.1475 27.2161 32.3996 27.2566C32.6509 26.7901 33.1138 26.5046 33.629 26.5046C34.0541 26.5046 34.4486 26.7 34.7205 27.0441C35.4897 26.7955 36.1525 26.3848 36.747 25.7904L36.7623 25.7751C36.8073 25.73 36.8658 25.7075 36.9244 25.7075C36.9829 25.7075 37.0424 25.73 37.0874 25.7751L37.635 26.3227C37.7241 26.4118 37.725 26.5568 37.6368 26.6469C36.91 27.3872 36.0129 27.9276 34.97 28.2527C34.8223 28.8174 34.309 29.2398 33.7091 29.292C33.6749 29.2947 33.6407 29.2965 33.6065 29.2965L33.6074 29.2974Z" fill="url(#paint1_linear_4673_6107)"/>
<path d="M39.4852 22.2005C39.451 23.7208 38.961 25.0699 38.0307 26.2101C37.9046 26.365 37.7722 26.5118 37.638 26.6478C37.5948 26.691 37.5362 26.7163 37.475 26.7163H37.4741C37.4129 26.7163 37.3543 26.6919 37.3111 26.6487L36.7635 26.1011C36.6743 26.0111 36.6734 25.8661 36.7635 25.776C37.5542 24.9808 38.0361 24.0108 38.1937 22.8958C38.354 21.7628 38.1532 20.6758 37.5975 19.6671C37.5876 19.6481 37.5768 19.6301 37.5669 19.613L38.4387 18.6935C38.7431 19.1591 38.9826 19.6544 39.1511 20.1642C39.3078 20.6388 39.4068 21.1171 39.4465 21.5854C39.4501 21.6349 39.4546 21.6836 39.46 21.7322C39.4744 21.8826 39.4888 22.0384 39.4852 22.2005Z" fill="#F9B62C"/>
<path d="M36.2244 16.6229L35.3427 17.5524C34.9122 17.3407 34.4636 17.1948 34.0052 17.1192C33.7134 17.0705 33.4171 17.0462 33.1253 17.0462C32.9425 17.0462 32.7579 17.0561 32.5759 17.075C31.9077 17.1426 31.2574 17.3443 30.6405 17.674C30.7522 18.1999 30.6108 18.6556 30.2307 19.0015C30.1812 19.0465 30.1262 19.0906 30.0668 19.133C30.0272 19.1618 29.9803 19.1762 29.9335 19.1762C29.8741 19.1762 29.8155 19.1528 29.7705 19.1087L28.1638 17.5019C28.0863 17.4236 28.0737 17.302 28.1349 17.211C28.3187 16.9363 28.6006 16.7337 28.9284 16.6409C29.05 16.6067 29.1725 16.5896 29.2932 16.5896C29.4841 16.5896 29.6741 16.6328 29.8596 16.7166C30.6243 16.2636 31.4475 15.9781 32.3103 15.8664C32.6021 15.8295 32.8731 15.8115 33.1388 15.8115C33.2829 15.8115 33.427 15.8169 33.5657 15.8277C34.2952 15.8862 34.9869 16.0555 35.6219 16.3302C35.7948 16.4041 36.0073 16.5004 36.2244 16.6229Z" fill="#F9B62C"/>
<path d="M32.9713 24.0918C32.0328 24.0918 31.1547 23.1669 31.1295 22.1519C31.116 21.6097 31.3411 21.0729 31.7464 20.6803C31.7986 20.6298 31.8662 20.6037 31.9346 20.6037C32.0031 20.6037 32.0733 20.6298 32.1256 20.683L34.5438 23.1011C34.6482 23.2056 34.6491 23.374 34.5474 23.4794C34.1511 23.891 33.653 24.0909 33.0262 24.0909C33.0262 24.0909 32.9857 24.0909 32.9722 24.0909L32.9713 24.0918Z" fill="url(#paint2_linear_4673_6107)"/>
<path d="M34.3534 23.5631C34.2841 23.5631 34.2147 23.537 34.1625 23.4839L31.7443 21.0657C31.693 21.0144 31.665 20.945 31.665 20.873C31.665 20.8009 31.6948 20.7316 31.747 20.6811C32.0433 20.3929 32.4135 20.2056 32.8169 20.1399C32.9232 20.1228 33.0304 20.1138 33.1349 20.1138C33.3933 20.1138 33.641 20.166 33.8725 20.2678C34.0985 20.0273 34.3264 19.7904 34.5542 19.5527C34.7146 19.386 34.8749 19.2185 35.0343 19.051C35.9439 18.0963 36.8517 17.1417 37.7596 16.1852C38.0703 15.8592 38.3801 15.5323 38.6899 15.2053C38.9223 14.9604 39.1546 14.7154 39.387 14.4704C39.5563 14.293 39.7401 14.2029 39.9346 14.2029C40.0256 14.2029 40.1183 14.2228 40.2111 14.2624C40.4227 14.3533 40.5911 14.5596 40.6398 14.7892C40.6875 15.0162 40.62 15.2414 40.4506 15.4224L40.2633 15.6241C40.0985 15.8007 39.9346 15.9772 39.7689 16.1519C38.9664 16.9967 38.1631 17.8415 37.3588 18.6845C36.8355 19.2338 36.3114 19.7832 35.7872 20.3317L35.1514 20.9982C35.0739 21.0801 34.9938 21.1639 34.9127 21.2467C35.0541 21.5322 35.1225 21.8204 35.1171 22.1041C35.1099 22.595 34.9505 23.0237 34.6461 23.3785C34.611 23.4199 34.5777 23.4551 34.5443 23.4875C34.4921 23.5388 34.4237 23.564 34.3561 23.564L34.3534 23.5631Z" fill="#2B71F3"/>
</g>
<defs>
<linearGradient id="paint0_linear_4673_6107" x1="25.9657" y1="29.2632" x2="33.3365" y2="21.8934" gradientUnits="userSpaceOnUse">
<stop stop-color="#2B71F3"/>
<stop offset="1" stop-color="#2B71F3" stop-opacity="0.2"/>
</linearGradient>
<linearGradient id="paint1_linear_4673_6107" x1="28.381" y1="26.4316" x2="33.0625" y2="21.7502" gradientUnits="userSpaceOnUse">
<stop stop-color="#2B71F3"/>
<stop offset="1" stop-color="#2B71F3" stop-opacity="0.2"/>
</linearGradient>
<linearGradient id="paint2_linear_4673_6107" x1="31.7158" y1="23.5118" x2="33.3351" y2="21.8925" gradientUnits="userSpaceOnUse">
<stop stop-color="#2B71F3"/>
<stop offset="1" stop-color="#2B71F3" stop-opacity="0.2"/>
</linearGradient>
</defs>
</svg>
