<svg width="56" height="45" viewBox="0 0 56 45" fill="none" xmlns="http://www.w3.org/2000/svg">
<mask id="mask0_3103_12033" style="mask-type:alpha" maskUnits="userSpaceOnUse" x="0" y="0" width="56" height="45">
<rect width="56" height="45" fill="#D9D9D9"/>
</mask>
<g mask="url(#mask0_3103_12033)">
<circle cx="33.5" cy="22.5" r="22.5" fill="white" fill-opacity="0.3"/>
<circle cx="33.5" cy="22.5" r="20.5" fill="white"/>
<path d="M44.4962 19.7238C44.4962 17.9653 43.1306 16.5318 41.3255 16.3893C40.993 16.3637 40.6267 16.351 40.1722 16.351C39.9505 16.351 39.7289 16.3528 39.5072 16.3564C39.2875 16.3583 39.0677 16.3619 38.8479 16.3619C38.7296 16.3619 38.6094 16.3601 38.491 16.3583C38.491 16.3583 38.3727 16.3564 38.3389 16.3564C38.3013 16.3564 38.2637 16.3564 38.2262 16.3601H38.1886C38.1886 16.3601 38.1867 16.3364 38.1867 16.3144C38.1942 15.9803 38.1924 15.6461 38.1905 15.3119V14.9284C38.1886 13.8692 37.7228 13.2776 36.6746 13.0055C36.6596 13.0037 36.6427 13.0018 36.6277 13H30.8554C30.8422 13 30.8291 13 30.8159 13.0037C29.9538 13.1899 29.4504 13.6866 29.317 14.4773C29.2832 14.6764 29.2869 14.8773 29.2907 15.069C29.2907 15.1421 29.2944 15.2133 29.2907 15.2845C29.2907 15.4854 29.2907 15.6863 29.2907 15.8853V16.267C29.2907 16.2907 29.2907 16.3272 29.2907 16.3564C29.2606 16.3583 29.2249 16.3583 29.2043 16.3583H29.1029C28.8455 16.3583 28.5882 16.3564 28.3308 16.3564C28.0735 16.3564 27.8143 16.3564 27.5569 16.3564C27.2188 16.3564 26.8826 16.3564 26.5445 16.3637C26.1049 16.3711 25.6992 16.4331 25.3311 16.55L26.8187 17.989C27.7222 17.9872 28.6239 17.9872 29.5274 17.9872H40.9498C41.8815 17.9872 42.5521 18.4857 42.7906 19.3568C42.8357 19.523 42.8545 19.7092 42.8508 19.9612C42.847 20.0836 42.8489 20.2059 42.8508 20.3301C42.8508 20.5894 42.8564 20.836 42.8263 21.0825C42.7625 21.5938 42.4281 21.97 41.9303 22.0905C40.9254 22.3316 39.9186 22.5708 38.9137 22.81C38.0327 23.02 37.1517 23.23 36.2727 23.44C36.2595 23.4419 36.2501 23.4455 36.2426 23.4455C36.2388 23.4364 36.237 23.4236 36.2332 23.409C36.0998 22.6877 35.4255 22.1362 34.6648 22.1252C34.3605 22.1197 34.0543 22.1179 33.75 22.1179C33.4457 22.1179 33.1339 22.1197 32.8258 22.1252C32.3637 22.1325 31.9336 22.3334 31.6406 22.6511L32.8709 23.8418V23.818C32.869 23.7706 32.8784 23.7541 32.8784 23.7541C32.8803 23.7541 32.8972 23.7432 32.9442 23.7432H34.5333C34.584 23.7432 34.6009 23.7523 34.6009 23.7523C34.6009 23.7523 34.614 23.7724 34.6122 23.8308C34.6084 24.3403 34.6084 24.848 34.6122 25.3575C34.6122 25.436 34.6009 25.4378 34.537 25.4378H34.522L35.7411 26.6175C36.0548 26.3326 36.2727 25.9126 36.2839 25.3648C36.2858 25.3063 36.2839 25.2552 36.2839 25.2114C36.2839 25.173 36.2839 25.131 36.2858 25.1036C36.3234 25.0909 36.3947 25.0744 36.4642 25.058L36.56 25.0361C37.7585 24.7494 38.9569 24.4645 40.1553 24.1814L42.3004 23.6701C42.5051 23.6226 42.6855 23.5606 42.8508 23.482V28.5477C42.8489 28.8527 42.8226 29.1723 42.6291 29.4334C42.3699 29.7822 42.0261 29.9447 41.5396 29.9447C40.7526 29.9429 39.9656 29.9429 39.1785 29.9429L40.8578 31.5664H41.6599C43.2227 31.5645 44.4962 30.3136 44.4981 28.7815C44.5 25.7629 44.5019 22.7443 44.4962 19.7257V19.7238ZM36.5187 16.3564C36.5074 16.3583 36.4868 16.3601 36.453 16.3601C36.0209 16.3583 35.587 16.3564 35.1531 16.3564H31.0545C31.0376 16.3583 30.9981 16.3583 30.9662 16.3564C30.9643 16.3236 30.9643 16.2852 30.9643 16.2651V16.1318C30.9625 15.6899 30.9606 15.248 30.9643 14.8061C30.9662 14.6253 30.9756 14.6161 31.1653 14.6161C32.0331 14.6143 32.9028 14.6143 33.7706 14.6143C34.6385 14.6143 35.4668 14.6143 36.314 14.6161C36.5056 14.6161 36.5168 14.6161 36.5187 14.8207V15.4415C36.5168 15.7283 36.5168 16.0168 36.5225 16.3053C36.5225 16.3309 36.5206 16.3473 36.5187 16.3564Z" fill="#3176E9"/>
<path d="M40.8578 31.5646C38.7409 31.5682 36.6239 31.5682 34.5051 31.5682H25.8664C25.4419 31.5664 25.0193 31.4824 24.6361 31.3016C23.7532 30.8871 23.2047 30.1822 23.0038 29.2034C23.0019 29.1924 23.0019 29.1814 23 29.1687V19.7458C23 19.4317 23.047 19.1194 23.1409 18.8199L23.186 18.6738C23.263 18.4273 23.3644 18.1863 23.5034 17.9671C23.9542 17.2622 24.5647 16.7874 25.3311 16.5482L26.8188 17.9872H26.4224C25.5208 17.9872 24.745 18.683 24.6567 19.5687C24.6098 20.0434 24.6229 20.5201 24.638 20.8835C24.6718 21.6011 24.9892 21.9627 25.7368 22.1325C25.8213 22.1526 25.9059 22.1727 25.9904 22.1928L27.2865 22.5014C28.5826 22.81 29.8805 23.1187 31.1785 23.4291C31.1916 23.4328 31.2198 23.4382 31.2424 23.4419C31.2442 23.4328 31.248 23.4182 31.2517 23.3999C31.3043 23.1168 31.4415 22.8575 31.6406 22.6493L32.8709 23.84C32.8728 24.0244 32.8728 24.207 32.8709 24.3933V24.8206C32.8728 24.9959 32.8747 25.1712 32.869 25.3447C32.869 25.3959 32.8784 25.4178 32.8841 25.4233C32.8878 25.4287 32.9085 25.4379 32.9536 25.4379C33.2071 25.4397 33.4607 25.4415 33.7162 25.4415C33.9716 25.4415 34.2534 25.4415 34.522 25.436L35.7411 26.6157C35.4199 26.9024 34.9935 27.0503 34.5746 27.0503C34.5408 27.0503 34.507 27.0503 34.4751 27.0503C34.2853 27.0394 34.0844 27.0357 33.8402 27.0357C33.6617 27.0357 33.4833 27.0376 33.3048 27.0394C33.1564 27.043 33.0062 27.0449 32.8578 27.0449C32.5892 27.0449 32.3431 26.9864 32.1158 26.8677C31.5091 26.5555 31.1992 26.0149 31.1973 25.2662C31.1973 25.2059 31.1954 25.1384 31.1916 25.1055C31.1578 25.0927 31.0883 25.0763 31.0263 25.0617L29.3734 24.6691C28.1975 24.3897 27.0216 24.1103 25.8458 23.829C25.7556 23.8071 25.6654 23.787 25.5734 23.7669C25.2597 23.6994 24.9347 23.6282 24.6304 23.4802C24.6304 24.2527 24.6304 25.0252 24.6304 25.7976C24.6304 26.7381 24.6304 27.6804 24.6323 28.6226C24.6323 28.8253 24.6473 29.0591 24.7544 29.2618C24.9967 29.7275 25.3705 29.9448 25.9322 29.9448C27.1155 29.9429 28.2933 29.9411 29.4729 29.9411H34.2008H38.1341C38.4817 29.9411 38.8292 29.9411 39.1767 29.9429L40.8559 31.5664L40.8578 31.5646Z" fill="url(#paint0_linear_3103_12033)"/>
</g>
<defs>
<linearGradient id="paint0_linear_3103_12033" x1="24.8878" y1="31.7873" x2="32.759" y2="23.691" gradientUnits="userSpaceOnUse">
<stop stop-color="#3176E9"/>
<stop offset="0.13" stop-color="#3176E9" stop-opacity="0.97"/>
<stop offset="0.33" stop-color="#3176E9" stop-opacity="0.88"/>
<stop offset="0.56" stop-color="#3176E9" stop-opacity="0.74"/>
<stop offset="0.82" stop-color="#3176E9" stop-opacity="0.55"/>
<stop offset="1" stop-color="#3176E9" stop-opacity="0.4"/>
</linearGradient>
</defs>
</svg>
