<svg width="56" height="45" viewBox="0 0 56 45" fill="none" xmlns="http://www.w3.org/2000/svg">
<mask id="mask0_3103_12063" style="mask-type:alpha" maskUnits="userSpaceOnUse" x="0" y="0" width="56" height="45">
<rect width="56" height="45" fill="#D9D9D9"/>
</mask>
<g mask="url(#mask0_3103_12063)">
<path d="M44.9201 19.8802C44.9201 18.0807 43.5617 16.6139 41.7659 16.4681C41.4352 16.442 41.0708 16.4289 40.6186 16.4289C40.3981 16.4289 40.1776 16.4308 39.9571 16.4345C39.7385 16.4364 39.5199 16.4401 39.3012 16.4401C39.1835 16.4401 39.0639 16.4382 38.9462 16.4364C38.9462 16.4364 38.8285 16.4345 38.7948 16.4345C38.7575 16.4345 38.7201 16.4345 38.6827 16.4382H38.6454C38.6454 16.4382 38.6435 16.4139 38.6435 16.3915C38.651 16.0496 38.6491 15.7076 38.6472 15.3657V14.9732C38.6454 13.8895 38.1819 13.284 37.1393 13.0056C37.1243 13.0037 37.1075 13.0019 37.0925 13H31.3503C31.3372 13 31.3242 13 31.3111 13.0037C30.4534 13.1943 29.9526 13.7026 29.8199 14.5117C29.7863 14.7154 29.79 14.9209 29.7938 15.1171C29.7938 15.1919 29.7975 15.2648 29.7938 15.3376C29.7938 15.5432 29.7938 15.7487 29.7938 15.9524V16.3429C29.7938 16.3672 29.7938 16.4046 29.7938 16.4345C29.7639 16.4364 29.7284 16.4364 29.7078 16.4364H29.6069C29.3509 16.4364 29.0949 16.4345 28.8389 16.4345C28.5829 16.4345 28.325 16.4345 28.069 16.4345C27.7327 16.4345 27.3982 16.4345 27.0619 16.442C26.6246 16.4494 26.221 16.513 25.8547 16.6326L27.3347 18.105C28.2335 18.1032 29.1304 18.1032 30.0292 18.1032H41.3922C42.319 18.1032 42.9861 18.6133 43.2234 19.5046C43.2683 19.6747 43.287 19.8653 43.2832 20.1231C43.2795 20.2483 43.2814 20.3735 43.2832 20.5006C43.2832 20.7659 43.2888 21.0182 43.2589 21.2705C43.1954 21.7937 42.8628 22.1786 42.3676 22.3019C41.3679 22.5486 40.3663 22.7934 39.3666 23.0382C38.4903 23.253 37.6139 23.4679 36.7394 23.6828C36.7263 23.6847 36.717 23.6884 36.7095 23.6884C36.7057 23.6791 36.7039 23.666 36.7001 23.6511C36.5675 22.913 35.8966 22.3486 35.1398 22.3374C34.8371 22.3318 34.5325 22.33 34.2298 22.33C33.9271 22.33 33.6169 22.3318 33.3105 22.3374C32.8508 22.3449 32.4229 22.5505 32.1314 22.8756L33.3553 24.0939V24.0696C33.3535 24.021 33.3628 24.0042 33.3628 24.0042C33.3647 24.0042 33.3815 23.993 33.4282 23.993H35.009C35.0595 23.993 35.0763 24.0024 35.0763 24.0024C35.0763 24.0024 35.0894 24.0229 35.0875 24.0827C35.0838 24.6041 35.0838 25.1235 35.0875 25.6449C35.0875 25.7252 35.0763 25.7271 35.0128 25.7271H34.9978L36.2106 26.9342C36.5226 26.6427 36.7394 26.2129 36.7506 25.6523C36.7525 25.5925 36.7506 25.5402 36.7506 25.4954C36.7506 25.4561 36.7506 25.4132 36.7525 25.3851C36.7898 25.372 36.8608 25.3552 36.93 25.3384L37.0253 25.316C38.2174 25.0226 39.4096 24.7311 40.6018 24.4415L42.7357 23.9183C42.9394 23.8697 43.1188 23.8062 43.2832 23.7258V28.9093C43.2814 29.2214 43.2552 29.5484 43.0627 29.8156C42.8049 30.1725 42.4629 30.3388 41.9789 30.3388C41.196 30.3369 40.4131 30.3369 39.6301 30.3369L41.3006 31.9981H42.0985C43.6532 31.9963 44.9201 30.7163 44.922 29.1485C44.9239 26.0597 44.9257 22.9709 44.9201 19.8821V19.8802ZM36.9842 16.4345C36.973 16.4364 36.9524 16.4382 36.9188 16.4382C36.489 16.4364 36.0573 16.4345 35.6257 16.4345H31.5484C31.5316 16.4364 31.4923 16.4364 31.4606 16.4345C31.4587 16.4009 31.4587 16.3616 31.4587 16.3411V16.2047C31.4568 15.7525 31.455 15.3003 31.4587 14.8481C31.4606 14.6631 31.4699 14.6537 31.6586 14.6537C32.5219 14.6518 33.3871 14.6518 34.2504 14.6518C35.1137 14.6518 35.9377 14.6518 36.7805 14.6537C36.9711 14.6537 36.9823 14.6537 36.9842 14.863V15.4983C36.9823 15.7917 36.9823 16.0869 36.9879 16.3822C36.9879 16.4083 36.986 16.4252 36.9842 16.4345Z" fill="white"/>
<path d="M41.3007 31.9962C39.1948 32 37.0889 32 34.9811 32H26.3874C25.9651 31.9981 25.5446 31.9121 25.1634 31.7272C24.2852 31.303 23.7396 30.5817 23.5396 29.5801C23.5378 29.5689 23.5378 29.5577 23.5359 29.5446V19.9026C23.5359 19.5812 23.5826 19.2617 23.676 18.9552L23.7209 18.8057C23.7975 18.5535 23.8984 18.3068 24.0367 18.0826C24.4851 17.3613 25.0924 16.8755 25.8548 16.6307L27.3348 18.1031H26.9405C26.0436 18.1031 25.2718 18.8151 25.184 19.7214C25.1373 20.2072 25.1504 20.6949 25.1653 21.0668C25.1989 21.8011 25.5147 22.1711 26.2584 22.3449C26.3425 22.3654 26.4266 22.386 26.5107 22.4065L27.8001 22.7223C29.0894 23.0381 30.3806 23.3539 31.6718 23.6716C31.6849 23.6753 31.7129 23.6809 31.7353 23.6847C31.7372 23.6753 31.7409 23.6604 31.7447 23.6417C31.797 23.3521 31.9334 23.0867 32.1315 22.8737L33.3554 24.092C33.3573 24.2808 33.3573 24.4676 33.3554 24.6582V25.0955C33.3573 25.2749 33.3592 25.4542 33.3536 25.6318C33.3536 25.6841 33.3629 25.7065 33.3685 25.7121C33.3722 25.7177 33.3928 25.7271 33.4376 25.7271C33.6899 25.7289 33.9422 25.7308 34.1963 25.7308C34.4504 25.7308 34.7307 25.7308 34.9979 25.7252L36.2107 26.9323C35.8911 27.2257 35.4669 27.377 35.0502 27.377C35.0166 27.377 34.983 27.377 34.9512 27.377C34.7625 27.3658 34.5625 27.3621 34.3196 27.3621C34.1421 27.3621 33.9646 27.364 33.7871 27.3658C33.6394 27.3696 33.49 27.3714 33.3423 27.3714C33.0751 27.3714 32.8303 27.3116 32.6042 27.1902C32.0007 26.8706 31.6924 26.3175 31.6905 25.5514C31.6905 25.4897 31.6886 25.4206 31.6849 25.387C31.6513 25.3739 31.5821 25.3571 31.5204 25.3421L29.8761 24.9404C28.7063 24.6545 27.5366 24.3686 26.3668 24.0808C26.2771 24.0584 26.1874 24.0378 26.0959 24.0173C25.7838 23.9481 25.4606 23.8753 25.1578 23.7239C25.1578 24.5143 25.1578 25.3048 25.1578 26.0952C25.1578 27.0575 25.1578 28.0217 25.1597 28.9859C25.1597 29.1933 25.1747 29.4325 25.2812 29.6399C25.5222 30.1164 25.8941 30.3388 26.4528 30.3388C27.63 30.3369 28.8016 30.335 29.9751 30.335H34.6784H38.5913C38.937 30.335 39.2826 30.335 39.6283 30.3369L41.2989 31.9981L41.3007 31.9962Z" fill="url(#paint0_linear_3103_12063)"/>
</g>
<defs>
<linearGradient id="paint0_linear_3103_12063" x1="25.4138" y1="32.2242" x2="33.4713" y2="24.1668" gradientUnits="userSpaceOnUse">
<stop stop-color="white"/>
<stop offset="0.12" stop-color="white" stop-opacity="0.97"/>
<stop offset="0.31" stop-color="white" stop-opacity="0.89"/>
<stop offset="0.53" stop-color="white" stop-opacity="0.77"/>
<stop offset="0.77" stop-color="white" stop-opacity="0.59"/>
<stop offset="1" stop-color="white" stop-opacity="0.4"/>
</linearGradient>
</defs>
</svg>
