<svg width="26" height="14" viewBox="0 0 26 14" fill="none" xmlns="http://www.w3.org/2000/svg">
<g clip-path="url(#clip0_2513_13338)">
<path d="M8.53975 7.31841C7.94686 7.80429 7.53619 8.41371 7.30774 9.14665C7.18263 9.54194 7.13096 9.95096 7.14184 10.3682C7.14728 10.5768 7.14728 10.7855 7.14184 10.9941C7.13368 11.2412 6.96778 11.3757 6.72845 11.3372C5.9751 11.2219 5.21904 11.1643 4.46025 11.1808C3.2092 11.2082 1.9772 11.3784 0.788702 11.7874C0.364434 11.9329 0.0190365 11.6831 0.0135971 11.2274C0.00543814 10.758 0.0135971 10.2831 0.0135971 9.69841C0.0299151 9.26743 -0.0271978 8.71567 0.0407938 8.16939C0.157739 7.21684 0.63912 6.50312 1.46862 6.03645C1.77322 5.86626 2.08326 5.9239 2.34979 6.13802C3.09226 6.72822 3.92991 7.00547 4.87364 6.96704C5.59979 6.93684 6.27155 6.71998 6.84812 6.27802C7.33766 5.90194 7.7864 5.96508 8.20523 6.33018C8.35481 6.46194 8.49623 6.5992 8.6159 6.75841C8.78724 6.98351 8.77092 7.13998 8.55335 7.31841H8.53975Z" fill="url(#paint0_linear_2513_13338)"/>
<path d="M7.86255 3.20627C7.85439 4.98235 6.46736 6.41255 4.68326 6.4098C2.88828 6.4098 1.51485 4.96039 1.50941 3.19804C1.50398 1.43294 2.94268 0 4.69686 0C6.43745 0 7.87343 1.44941 7.86255 3.20627Z" fill="url(#paint1_linear_2513_13338)"/>
<path d="M25.9973 9.81372C25.9973 10.2804 25.9973 10.7471 25.9973 11.211C25.9973 11.5074 25.8695 11.6969 25.6274 11.7957C25.505 11.8451 25.3826 11.8396 25.2603 11.7984C24.5069 11.5376 23.7318 11.3674 22.9431 11.2769C22.2605 11.2 21.5751 11.1561 20.8843 11.189C20.3349 11.2137 19.791 11.2549 19.2471 11.3373C19.0295 11.3702 18.869 11.2247 18.8636 10.9886C18.8582 10.7498 18.8636 10.5137 18.8636 10.2749C18.8582 9.07255 18.3822 8.09529 17.4766 7.32666C17.2481 7.13176 17.2264 6.98078 17.4113 6.7447C17.5799 6.53059 17.773 6.34117 17.9988 6.19019C18.3469 5.95412 18.7222 5.95412 19.0594 6.20666C19.8073 6.76941 20.6477 7.0247 21.5751 6.96431C22.3339 6.9149 23.0165 6.64863 23.6176 6.17372C23.963 5.89921 24.2893 5.87176 24.6565 6.1051C25.5159 6.64863 25.9592 7.4447 25.9946 8.46313C26.0109 8.91333 25.9946 9.36627 25.9946 9.81647L25.9973 9.81372Z" fill="url(#paint2_linear_2513_13338)"/>
<path d="M21.3276 0C23.0655 0 24.5069 1.44941 24.4933 3.20627C24.4797 4.98235 23.0927 6.41529 21.3113 6.4098C19.5218 6.40431 18.1429 4.97137 18.1402 3.19804C18.1347 1.43294 19.5734 0 21.3276 0Z" fill="url(#paint3_linear_2513_13338)"/>
<path d="M18.0912 10.0279C18.0178 9.07264 17.5718 8.32323 16.8157 7.75774C16.3941 7.44205 15.9862 7.46127 15.5674 7.76598C15.2954 7.96362 15.018 8.12558 14.7352 8.2546C13.8322 8.66088 12.8667 8.70754 11.8441 8.40558C11.3437 8.2546 10.9004 7.99656 10.487 7.67539C10.1389 7.40362 9.77176 7.38441 9.39917 7.61774C8.43641 8.22166 7.93327 9.10284 7.89519 10.2475C7.87887 10.7472 7.89519 11.2495 7.89519 11.7464C7.89519 12.2707 7.89519 12.795 7.89519 13.3193C7.90063 13.7997 8.27866 14.1017 8.70565 13.9589C9.76088 13.6021 10.846 13.3989 11.9529 13.3138C12.9021 13.2424 13.8458 13.2617 14.7895 13.3632C15.6462 13.4593 16.4921 13.6295 17.3134 13.9013C17.414 13.937 17.5201 13.9479 17.6262 13.9205C17.9308 13.8464 18.1157 13.6075 18.1211 13.2699C18.1211 12.8334 18.1266 12.397 18.1211 11.9577C18.1211 11.8562 18.1211 11.7573 18.1211 11.6585C18.1211 11.1122 18.1483 10.5632 18.1021 10.0197L18.0912 10.0279Z" fill="#2A71F3"/>
<path d="M13.087 0.851074C11.5123 0.862055 10.2314 1.86402 9.75817 3.23656C9.63034 3.60441 9.55963 3.9997 9.55963 4.41147C9.55419 6.37696 11.1343 7.96911 13.087 7.96911C13.495 7.96911 13.8839 7.90049 14.2483 7.77147C15.6245 7.28833 16.6144 5.96794 16.6144 4.41421C16.6144 2.45696 15.0234 0.840094 13.087 0.853819V0.851074Z" fill="#2A71F3"/>
</g>
<defs>
<linearGradient id="paint0_linear_2513_13338" x1="0.669036" y1="12.1745" x2="7.39698" y2="5.50888" gradientUnits="userSpaceOnUse">
<stop stop-color="#F7BE00"/>
<stop offset="1" stop-color="#F7BE00" stop-opacity="0.5"/>
</linearGradient>
<linearGradient id="paint1_linear_2513_13338" x1="2.43954" y1="5.47922" x2="6.97699" y2="0.983803" gradientUnits="userSpaceOnUse">
<stop stop-color="#F7BE00"/>
<stop offset="1" stop-color="#F7BE00" stop-opacity="0.5"/>
</linearGradient>
<linearGradient id="paint2_linear_2513_13338" x1="17.2835" y1="8.88862" x2="26" y2="8.88862" gradientUnits="userSpaceOnUse">
<stop stop-color="#52B6F3"/>
<stop offset="1" stop-color="#52B6F3" stop-opacity="0.5"/>
</linearGradient>
<linearGradient id="paint3_linear_2513_13338" x1="18.1402" y1="3.20627" x2="24.4933" y2="3.20627" gradientUnits="userSpaceOnUse">
<stop stop-color="#52B6F3"/>
<stop offset="1" stop-color="#52B6F3" stop-opacity="0.5"/>
</linearGradient>
<clipPath id="clip0_2513_13338">
<rect width="26" height="14" fill="white"/>
</clipPath>
</defs>
</svg>
