<svg width="56" height="45" viewBox="0 0 56 45" fill="none" xmlns="http://www.w3.org/2000/svg">
<mask id="mask0_4673_6173" style="mask-type:alpha" maskUnits="userSpaceOnUse" x="0" y="0" width="56" height="45">
<rect width="56" height="45" fill="#D9D9D9"/>
</mask>
<g mask="url(#mask0_4673_6173)">
<g clip-path="url(#clip0_4673_6173)">
<path d="M41.8388 23.0934C42.5804 23.6971 43.0941 24.4543 43.3799 25.365C43.5363 25.8562 43.601 26.3644 43.5874 26.8828C43.5806 27.1421 43.5806 27.4013 43.5874 27.6605C43.5976 27.9675 43.8051 28.1346 44.1045 28.0869C45.0468 27.9436 45.9925 27.872 46.9416 27.8924C48.5065 27.9266 50.0475 28.138 51.5341 28.6462C52.0648 28.827 52.4968 28.5166 52.5036 27.9504C52.5138 27.3672 52.5036 26.7771 52.5036 26.0506C52.4832 25.5151 52.5547 24.8295 52.4696 24.1507C52.3233 22.9672 51.7212 22.0804 50.6836 21.5005C50.3026 21.289 49.9148 21.3607 49.5814 21.6267C48.6527 22.36 47.605 22.7045 46.4245 22.6568C45.5162 22.6193 44.676 22.3498 43.9548 21.8007C43.3424 21.3334 42.7811 21.4118 42.2572 21.8655C42.0701 22.0292 41.8932 22.1997 41.7436 22.3976C41.5293 22.6773 41.5497 22.8717 41.8218 23.0934H41.8388Z" fill="url(#paint0_linear_4673_6173)"/>
<path d="M42.6858 17.9839C42.696 20.1907 44.431 21.9677 46.6626 21.9643C48.9078 21.9643 50.6257 20.1634 50.6325 17.9736C50.6394 15.7805 48.8398 14 46.6456 14C44.4684 14 42.6722 15.8009 42.6858 17.9839Z" fill="url(#paint1_linear_4673_6173)"/>
<path d="M20.0023 26.1938C20.0023 26.7737 20.0023 27.3535 20.0023 27.9299C20.0023 28.2983 20.1622 28.5337 20.465 28.6565C20.6181 28.7178 20.7712 28.711 20.9242 28.6599C21.8665 28.3358 22.8361 28.1244 23.8226 28.0118C24.6765 27.9163 25.5337 27.8617 26.3978 27.9027C27.085 27.9333 27.7654 27.9845 28.4457 28.0868C28.7179 28.1278 28.9186 27.947 28.9254 27.6537C28.9322 27.3569 28.9254 27.0636 28.9254 26.7668C28.9322 25.2729 29.5275 24.0586 30.6603 23.1036C30.9461 22.8614 30.9733 22.6738 30.742 22.3805C30.5311 22.1144 30.2895 21.8791 30.0072 21.6915C29.5717 21.3982 29.1023 21.3982 28.6805 21.712C27.745 22.4112 26.6938 22.7284 25.5337 22.6534C24.5846 22.592 23.7308 22.2611 22.979 21.671C22.5469 21.3299 22.1387 21.2958 21.6794 21.5858C20.6045 22.2611 20.05 23.2503 20.0057 24.5157C19.9853 25.0751 20.0057 25.6378 20.0057 26.1972L20.0023 26.1938Z" fill="url(#paint2_linear_4673_6173)"/>
<path d="M25.8433 14C23.6695 14 21.8666 15.8009 21.8836 17.9839C21.9006 20.1907 23.6355 21.9712 25.8637 21.9643C28.1022 21.9575 29.8269 20.1771 29.8303 17.9736C29.8371 15.7805 28.0375 14 25.8433 14Z" fill="url(#paint3_linear_4673_6173)"/>
<path d="M29.8914 26.4598C29.9833 25.2728 30.5412 24.3416 31.4869 23.639C32.0142 23.2468 32.5245 23.2706 33.0483 23.6492C33.3885 23.8948 33.7355 24.0961 34.0893 24.2564C35.2187 24.7612 36.4264 24.8192 37.7055 24.444C38.3314 24.2564 38.8859 23.9358 39.403 23.5367C39.8385 23.199 40.2977 23.1751 40.7638 23.4651C41.968 24.2154 42.5974 25.3103 42.645 26.7327C42.6654 27.3534 42.645 27.9776 42.645 28.595C42.645 29.2465 42.645 29.8979 42.645 30.5494C42.6382 31.1463 42.1653 31.5215 41.6312 31.3441C40.3113 30.9007 38.954 30.6483 37.5694 30.5426C36.3822 30.4539 35.2017 30.4778 34.0213 30.604C32.9497 30.7233 31.8917 30.9348 30.8644 31.2725C30.7385 31.3168 30.6058 31.3305 30.4731 31.2964C30.0921 31.2043 29.8608 30.9075 29.854 30.488C29.854 29.9457 29.8472 29.4034 29.854 28.8576C29.854 28.7314 29.854 28.6086 29.854 28.4858C29.854 27.8071 29.82 27.1249 29.8778 26.4496L29.8914 26.4598Z" fill="white"/>
<path d="M36.151 15.0574C38.1207 15.071 39.723 16.316 40.3149 18.0214C40.4748 18.4785 40.5632 18.9696 40.5632 19.4812C40.57 21.9234 38.5935 23.9017 36.151 23.9017C35.6407 23.9017 35.1543 23.8164 34.6984 23.6561C32.9771 23.0558 31.7388 21.4152 31.7388 19.4847C31.7388 17.0527 33.7289 15.0437 36.151 15.0608V15.0574Z" fill="white"/>
</g>
<circle cx="33.4998" cy="22.5" r="22.5" fill="white" fill-opacity="0.3"/>
<circle cx="33.4998" cy="22.5" r="20.5" fill="white"/>
<path d="M28.8458 23.3639C28.1617 23.9192 27.6878 24.6157 27.4242 25.4533C27.2799 25.9051 27.2202 26.3725 27.2328 26.8494C27.2391 27.0878 27.2391 27.3263 27.2328 27.5647C27.2234 27.847 27.0319 28.0008 26.7558 27.9568C25.8866 27.8251 25.0142 27.7592 24.1386 27.778C22.6951 27.8094 21.2736 28.0039 19.9022 28.4714C19.4127 28.6376 19.0142 28.3521 19.0079 27.8314C18.9985 27.2949 19.0079 26.7521 19.0079 26.0839C19.0267 25.5914 18.9608 24.9608 19.0393 24.3364C19.1742 23.2478 19.7296 22.4321 20.6868 21.8988C21.0382 21.7043 21.396 21.7702 21.7035 22.0149C22.5602 22.6894 23.5267 23.0063 24.6156 22.9623C25.4535 22.9278 26.2286 22.68 26.8939 22.1749C27.4587 21.7451 27.9765 21.8172 28.4598 22.2345C28.6324 22.3851 28.7955 22.5419 28.9336 22.7239C29.1313 22.9812 29.1125 23.16 28.8614 23.3639H28.8458Z" fill="url(#paint4_linear_4673_6173)"/>
<path d="M28.0644 18.6643C28.055 20.6941 26.4546 22.3286 24.396 22.3255C22.3249 22.3255 20.7402 20.669 20.7339 18.6549C20.7276 16.6376 22.3877 15 24.4117 15C26.4201 15 28.077 16.6565 28.0644 18.6643Z" fill="url(#paint5_linear_4673_6173)"/>
<path d="M48.9891 26.2157C48.9891 26.749 48.9891 27.2823 48.9891 27.8125C48.9891 28.1514 48.8416 28.3678 48.5623 28.4808C48.4211 28.5373 48.2799 28.531 48.1386 28.4839C47.2694 28.1859 46.375 27.9914 45.465 27.8878C44.6773 27.8 43.8866 27.7498 43.0895 27.7874C42.4556 27.8157 41.828 27.8627 41.2004 27.9569C40.9493 27.9945 40.7642 27.8282 40.7579 27.5584C40.7516 27.2855 40.7579 27.0157 40.7579 26.7427C40.7516 25.3686 40.2025 24.2518 39.1575 23.3733C38.8939 23.1506 38.8688 22.978 39.0822 22.7082C39.2767 22.4635 39.4995 22.2471 39.76 22.0745C40.1617 21.8047 40.5947 21.8047 40.9838 22.0933C41.8468 22.7365 42.8165 23.0282 43.8866 22.9592C44.7621 22.9027 45.5497 22.5984 46.2432 22.0557C46.6418 21.742 47.0184 21.7106 47.442 21.9773C48.4336 22.5984 48.9451 23.5082 48.9859 24.6722C49.0048 25.1867 48.9859 25.7043 48.9859 26.2188L48.9891 26.2157Z" fill="url(#paint6_linear_4673_6173)"/>
<path d="M43.6009 15C45.6062 15 47.2694 16.6565 47.2537 18.6643C47.238 20.6941 45.6376 22.3318 43.5821 22.3255C41.5173 22.3192 39.9263 20.6816 39.9231 18.6549C39.9168 16.6376 41.5769 15 43.6009 15Z" fill="url(#paint7_linear_4673_6173)"/>
<path d="M39.8668 26.4604C39.782 25.3686 39.2674 24.5122 38.395 23.8659C37.9086 23.5051 37.4379 23.5271 36.9546 23.8753C36.6408 24.1012 36.3207 24.2863 35.9944 24.4337C34.9525 24.8981 33.8385 24.9514 32.6586 24.6063C32.0812 24.4337 31.5697 24.1388 31.0927 23.7718C30.691 23.4612 30.2674 23.4392 29.8375 23.7059C28.7266 24.3961 28.1461 25.4032 28.1021 26.7114C28.0833 27.2824 28.1021 27.8565 28.1021 28.4243C28.1021 29.0235 28.1021 29.6228 28.1021 30.222C28.1084 30.771 28.5446 31.1161 29.0373 30.953C30.2548 30.5451 31.5069 30.313 32.7841 30.2157C33.8793 30.1341 34.9682 30.1561 36.0571 30.2722C37.0456 30.382 38.0216 30.5765 38.9693 30.8871C39.0854 30.9279 39.2078 30.9404 39.3302 30.909C39.6816 30.8243 39.895 30.5514 39.9013 30.1655C39.9013 29.6667 39.9076 29.1679 39.9013 28.6659C39.9013 28.5498 39.9013 28.4369 39.9013 28.3239C39.9013 27.6996 39.9327 27.0722 39.8793 26.451L39.8668 26.4604Z" fill="#2A71F3"/>
<path d="M34.0926 15.9725C32.2756 15.9851 30.7976 17.1302 30.2516 18.6988C30.1041 19.1192 30.0225 19.571 30.0225 20.0416C30.0162 22.2878 31.8394 24.1074 34.0926 24.1074C34.5633 24.1074 35.012 24.029 35.4325 23.8816C37.0204 23.3294 38.1626 21.8204 38.1626 20.0447C38.1626 17.8078 36.3269 15.96 34.0926 15.9757V15.9725Z" fill="#2A71F3"/>
</g>
<defs>
<linearGradient id="paint0_linear_4673_6173" x1="51.6838" y1="29.1272" x2="43.3238" y2="20.7893" gradientUnits="userSpaceOnUse">
<stop stop-color="white"/>
<stop offset="1" stop-color="white" stop-opacity="0.5"/>
</linearGradient>
<linearGradient id="paint1_linear_4673_6173" x1="49.4691" y1="20.8081" x2="43.831" y2="15.1848" gradientUnits="userSpaceOnUse">
<stop stop-color="white"/>
<stop offset="1" stop-color="white" stop-opacity="0.5"/>
</linearGradient>
<linearGradient id="paint2_linear_4673_6173" x1="30.9019" y1="25.0444" x2="19.9989" y2="25.0444" gradientUnits="userSpaceOnUse">
<stop stop-color="white"/>
<stop offset="1" stop-color="white" stop-opacity="0.5"/>
</linearGradient>
<linearGradient id="paint3_linear_4673_6173" x1="29.8303" y1="17.9839" x2="21.8836" y2="17.9839" gradientUnits="userSpaceOnUse">
<stop stop-color="white"/>
<stop offset="1" stop-color="white" stop-opacity="0.5"/>
</linearGradient>
<linearGradient id="paint4_linear_4673_6173" x1="19.7642" y1="28.9137" x2="27.4536" y2="21.2223" gradientUnits="userSpaceOnUse">
<stop stop-color="#F7BE00"/>
<stop offset="1" stop-color="#F7BE00" stop-opacity="0.5"/>
</linearGradient>
<linearGradient id="paint5_linear_4673_6173" x1="21.8071" y1="21.262" x2="26.993" y2="16.0747" gradientUnits="userSpaceOnUse">
<stop stop-color="#F7BE00"/>
<stop offset="1" stop-color="#F7BE00" stop-opacity="0.5"/>
</linearGradient>
<linearGradient id="paint6_linear_4673_6173" x1="38.9347" y1="25.1584" x2="48.9922" y2="25.1584" gradientUnits="userSpaceOnUse">
<stop stop-color="#52B6F3"/>
<stop offset="1" stop-color="#52B6F3" stop-opacity="0.5"/>
</linearGradient>
<linearGradient id="paint7_linear_4673_6173" x1="39.9231" y1="18.6643" x2="47.2537" y2="18.6643" gradientUnits="userSpaceOnUse">
<stop stop-color="#52B6F3"/>
<stop offset="1" stop-color="#52B6F3" stop-opacity="0.5"/>
</linearGradient>
<clipPath id="clip0_4673_6173">
<rect width="39.1826" height="17.3953" fill="white" transform="matrix(-1 0 0 1 52.9998 14)"/>
</clipPath>
</defs>
</svg>
