<svg width="56" height="45" viewBox="0 0 56 45" fill="none" xmlns="http://www.w3.org/2000/svg">
<mask id="mask0_4673_6200" style="mask-type:alpha" maskUnits="userSpaceOnUse" x="0" y="0" width="56" height="45">
<rect width="56" height="45" fill="#D9D9D9"/>
</mask>
<g mask="url(#mask0_4673_6200)">
<path d="M39.842 23.0934C40.5836 23.6971 41.0973 24.4543 41.383 25.365C41.5395 25.8562 41.6042 26.3644 41.5905 26.8828C41.5837 27.1421 41.5837 27.4013 41.5905 27.6605C41.6008 27.9675 41.8083 28.1346 42.1076 28.0869C43.0499 27.9436 43.9957 27.872 44.9448 27.8924C46.5096 27.9266 48.0507 28.138 49.5373 28.6462C50.068 28.827 50.5 28.5166 50.5068 27.9504C50.517 27.3672 50.5068 26.7771 50.5068 26.0506C50.4864 25.5151 50.5578 24.8295 50.4728 24.1507C50.3265 22.9672 49.7244 22.0804 48.6868 21.5005C48.3058 21.289 47.918 21.3607 47.5846 21.6267C46.6559 22.36 45.6081 22.7045 44.4277 22.6568C43.5194 22.6193 42.6791 22.3498 41.9579 21.8007C41.3456 21.3334 40.7843 21.4118 40.2604 21.8655C40.0733 22.0292 39.8964 22.1997 39.7467 22.3976C39.5324 22.6773 39.5528 22.8717 39.825 23.0934H39.842Z" fill="url(#paint0_linear_4673_6200)"/>
<path d="M40.689 17.9839C40.6992 20.1907 42.4341 21.9677 44.6658 21.9643C46.911 21.9643 48.6289 20.1634 48.6357 17.9736C48.6425 15.7805 46.8429 14 44.6487 14C42.4716 14 40.6754 15.8009 40.689 17.9839Z" fill="url(#paint1_linear_4673_6200)"/>
<path d="M18.0055 26.1938C18.0055 26.7737 18.0055 27.3535 18.0055 27.9299C18.0055 28.2983 18.1654 28.5337 18.4682 28.6565C18.6212 28.7178 18.7743 28.711 18.9274 28.6599C19.8697 28.3358 20.8392 28.1244 21.8258 28.0118C22.6797 27.9163 23.5369 27.8617 24.401 27.9027C25.0882 27.9333 25.7685 27.9845 26.4489 28.0868C26.7211 28.1278 26.9218 27.947 26.9286 27.6537C26.9354 27.3569 26.9286 27.0636 26.9286 26.7668C26.9354 25.2729 27.5307 24.0586 28.6635 23.1036C28.9493 22.8614 28.9765 22.6738 28.7452 22.3805C28.5342 22.1144 28.2927 21.8791 28.0104 21.6915C27.5749 21.3982 27.1055 21.3982 26.6836 21.712C25.7481 22.4112 24.697 22.7284 23.5369 22.6534C22.5878 22.592 21.7339 22.2611 20.9821 21.671C20.5501 21.3299 20.1419 21.2958 19.6826 21.5858C18.6076 22.2611 18.0531 23.2503 18.0089 24.5157C17.9885 25.0751 18.0089 25.6378 18.0089 26.1972L18.0055 26.1938Z" fill="url(#paint2_linear_4673_6200)"/>
<path d="M23.8465 14C21.6727 14 19.8697 15.8009 19.8867 17.9839C19.9038 20.1907 21.6387 21.9712 23.8669 21.9643C26.1053 21.9575 27.8301 20.1771 27.8335 17.9736C27.8403 15.7805 26.0407 14 23.8465 14Z" fill="url(#paint3_linear_4673_6200)"/>
<path d="M27.8946 26.4598C27.9865 25.2728 28.5444 24.3416 29.4901 23.639C30.0174 23.2468 30.5276 23.2706 31.0515 23.6492C31.3917 23.8948 31.7387 24.0961 32.0925 24.2564C33.2219 24.7612 34.4296 24.8192 35.7087 24.444C36.3346 24.2564 36.8891 23.9358 37.4062 23.5367C37.8416 23.199 38.3009 23.1751 38.7669 23.4651C39.9712 24.2154 40.6005 25.3103 40.6482 26.7327C40.6686 27.3534 40.6482 27.9776 40.6482 28.595C40.6482 29.2465 40.6482 29.8979 40.6482 30.5494C40.6414 31.1463 40.1685 31.5215 39.6344 31.3441C38.3145 30.9007 36.9571 30.6483 35.5726 30.5426C34.3853 30.4539 33.2049 30.4778 32.0245 30.604C30.9529 30.7233 29.8949 30.9348 28.8675 31.2725C28.7417 31.3168 28.609 31.3305 28.4763 31.2964C28.0953 31.2043 27.864 30.9075 27.8572 30.488C27.8572 29.9457 27.8504 29.4034 27.8572 28.8576C27.8572 28.7314 27.8572 28.6086 27.8572 28.4858C27.8572 27.8071 27.8232 27.1249 27.881 26.4496L27.8946 26.4598Z" fill="white"/>
<path d="M34.1542 15.0574C36.1239 15.071 37.7261 16.316 38.3181 18.0214C38.4779 18.4785 38.5664 18.9696 38.5664 19.4812C38.5732 21.9234 36.5967 23.9017 34.1542 23.9017C33.6439 23.9017 33.1574 23.8164 32.7016 23.6561C30.9803 23.0558 29.742 21.4152 29.742 19.4847C29.742 17.0527 31.7321 15.0437 34.1542 15.0608V15.0574Z" fill="white"/>
</g>
<defs>
<linearGradient id="paint0_linear_4673_6200" x1="49.687" y1="29.1272" x2="41.327" y2="20.7893" gradientUnits="userSpaceOnUse">
<stop stop-color="white"/>
<stop offset="1" stop-color="white" stop-opacity="0.5"/>
</linearGradient>
<linearGradient id="paint1_linear_4673_6200" x1="47.4723" y1="20.8081" x2="41.8342" y2="15.1848" gradientUnits="userSpaceOnUse">
<stop stop-color="white"/>
<stop offset="1" stop-color="white" stop-opacity="0.5"/>
</linearGradient>
<linearGradient id="paint2_linear_4673_6200" x1="28.905" y1="25.0444" x2="18.0021" y2="25.0444" gradientUnits="userSpaceOnUse">
<stop stop-color="white"/>
<stop offset="1" stop-color="white" stop-opacity="0.5"/>
</linearGradient>
<linearGradient id="paint3_linear_4673_6200" x1="27.8335" y1="17.9839" x2="19.8867" y2="17.9839" gradientUnits="userSpaceOnUse">
<stop stop-color="white"/>
<stop offset="1" stop-color="white" stop-opacity="0.5"/>
</linearGradient>
</defs>
</svg>
